<svg width="80" height="80" viewBox="0 0 80 80" fill="none" xmlns="http://www.w3.org/2000/svg">
<path d="M78.7995 49.6791C73.4603 71.1055 51.7523 84.1463 30.3195 78.7991C8.88665 73.4519 -4.14815 51.7547 1.19945 30.3263C6.54705 8.89792 28.2443 -4.14888 49.6723 1.19912C71.1003 6.54712 84.1471 28.2455 78.7995 49.6791Z" fill="#F7931A"/>
<path d="M57.6396 34.3013C58.4348 28.9785 54.382 26.1169 48.8396 24.2081L50.6396 16.9981L46.2492 15.9045L44.4956 22.9249C43.3427 22.6377 42.1579 22.3649 40.9803 22.0977L42.7403 15.0309L38.3543 13.9373L36.5595 21.1445L27.7067 18.9517L26.5387 23.6401C26.5387 23.6401 29.7955 24.3865 29.7267 24.4329C31.5043 24.8769 31.8267 26.0529 31.7723 26.9857L26.8467 46.7377C26.6291 47.2777 26.0779 48.0873 24.8354 47.7777C24.8794 47.8417 21.645 46.9777 21.645 46.9777L19.4658 52.0093L28.3059 54.2413L26.4891 61.5353L30.8731 62.6289L32.6731 55.4132C33.8731 55.7381 35.0331 56.0381 36.1699 56.3205L34.3771 63.5025L38.7667 64.5961L40.5835 57.3161C48.0688 58.7321 53.6976 58.1609 56.0636 51.3961C57.9724 45.9461 55.97 42.8021 52.0316 40.7509C54.8996 40.0869 57.0596 38.2013 57.636 34.3041L57.6396 34.3013ZM47.6076 48.3649C46.2476 53.8149 37.0735 50.8697 34.0967 50.1297L36.5071 40.4677C39.4823 41.2101 49.0228 42.6805 47.6092 48.3641L47.6076 48.3649ZM48.9692 34.2241C47.7316 39.1841 40.0927 36.6641 37.6135 36.0457L39.7959 27.2801C42.2759 27.8993 50.2564 29.0521 48.966 34.2237" fill="white"/>
</svg>
