<svg width="80" height="80" viewBox="0 0 80 80" fill="none" xmlns="http://www.w3.org/2000/svg">
<path d="M30.3336 46.7058C29.982 46.7058 29.8627 46.7892 29.866 47.162C29.8823 49.59 29.8856 52.0165 29.8643 54.4445C29.8611 54.8533 29.982 54.9449 30.3728 54.9432C33.8767 54.9285 37.379 54.935 40.883 54.935C42.3153 54.935 43.7345 54.7912 45.1292 54.4592C49.0468 53.5224 52.1926 51.4704 54.3411 48.0057C54.5798 47.6214 54.7826 47.2143 55.0458 46.7401C54.8153 46.7271 54.6992 46.7156 54.5831 46.7156C46.4994 46.7124 38.4157 46.7156 30.3336 46.7058Z" fill="#F4B731"/>
<path d="M55.7553 37.7426C47.3233 37.7426 38.8897 37.7426 30.4577 37.7426C30.3661 37.7426 30.2729 37.7491 30.183 37.7426C29.9394 37.723 29.8625 37.8407 29.8707 38.0712C29.8838 38.4113 29.874 38.7531 29.874 39.0948C29.874 40.1821 29.874 41.2678 29.874 42.3992C30.0489 42.409 30.165 42.4221 30.2795 42.4221C38.8308 42.4238 47.3805 42.4205 55.9318 42.4303C56.2687 42.4303 56.3717 42.2995 56.3717 42.0003C56.3717 40.7707 56.3897 39.5412 56.3717 38.3116C56.3619 37.7442 56.3324 37.7426 55.7553 37.7426Z" fill="#F4B731"/>
<path d="M29.8744 33.0104C29.8744 33.138 29.8858 33.2671 29.8924 33.4208C38.2884 33.4208 46.637 33.4208 55.0216 33.4208C54.9741 33.3015 54.948 33.2148 54.9087 33.1363C53.7609 30.8276 52.1014 28.9735 49.9316 27.5837C47.2387 25.8587 44.2531 25.1278 41.0892 25.0984C37.4954 25.0657 33.9015 25.0935 30.3077 25.0853C29.9676 25.0837 29.8646 25.1851 29.8662 25.5333C29.8809 28.0252 29.8744 30.517 29.8744 33.0104Z" fill="#F4B731"/>
<path d="M40 0C17.9088 0 0 17.9088 0 40C0 62.0912 17.9088 80 40 80C62.0912 80 80 62.0912 80 40C80 17.9088 62.0912 0 40 0ZM64.413 37.742C64.1351 37.742 63.8653 37.742 63.5955 37.742C62.7829 37.742 61.9686 37.7534 61.156 37.7371C60.8126 37.7289 60.708 37.7927 60.7162 38.19C60.7439 39.498 60.6949 40.8077 60.6769 42.1158C60.6753 42.1942 60.6769 42.2711 60.6769 42.4084C61.9343 42.4084 63.1507 42.4084 64.4032 42.4084C64.4032 43.8473 64.4032 45.2534 64.4032 46.6923C64.2609 46.6988 64.1203 46.7103 63.9814 46.7103C62.657 46.7119 61.3309 46.7168 60.0065 46.707C59.74 46.7054 59.5929 46.7675 59.4784 47.0422C56.9588 53.0935 52.3676 56.671 46.0808 58.1965C44.3558 58.6151 42.5965 58.7704 40.8208 58.7672C35.9663 58.759 31.1118 58.7639 26.2574 58.7639C26.0889 58.7639 25.9189 58.7639 25.7129 58.7639C25.7014 58.5661 25.6835 58.3993 25.6835 58.2341C25.6818 54.5602 25.6769 50.8878 25.69 47.2139C25.6916 46.828 25.6099 46.6939 25.1946 46.7021C23.7525 46.7299 22.3087 46.7119 20.8649 46.7119C20.7243 46.7119 20.5837 46.7119 20.4202 46.7119C20.4202 45.2698 20.4202 43.8735 20.4202 42.4362C22.155 42.4362 23.8816 42.4362 25.6524 42.4362C25.6638 42.276 25.6802 42.1501 25.6802 42.0258C25.6818 40.7407 25.6687 39.4539 25.69 38.1687C25.6965 37.8058 25.5657 37.7322 25.2354 37.7355C23.7917 37.7502 22.3496 37.742 20.9058 37.742C20.7521 37.742 20.5968 37.742 20.4218 37.742C20.4218 36.2966 20.4218 34.9003 20.4218 33.4516C22.1648 33.4516 23.9012 33.4516 25.6835 33.4516C25.6835 29.3672 25.6835 25.3336 25.6835 21.2443C25.8698 21.2443 26.0072 21.2443 26.1462 21.2443C31.1053 21.2443 36.0644 21.2099 41.0235 21.2541C45.6606 21.295 49.9575 22.482 53.7083 25.3172C56.3882 27.343 58.3355 29.9313 59.5455 33.0657C59.6599 33.36 59.7956 33.4614 60.1112 33.4565C61.3963 33.4369 62.6831 33.4483 63.9683 33.4483C64.1089 33.4483 64.2495 33.4483 64.4146 33.4483C64.413 34.8855 64.413 36.2819 64.413 37.742Z" fill="#F4B731"/>
</svg>
