<svg width="80" height="80" viewBox="0 0 80 80" fill="none" xmlns="http://www.w3.org/2000/svg">
<path d="M40 80C62.0914 80 80 62.0914 80 40C80 17.9086 62.0914 0 40 0C17.9086 0 0 17.9086 0 40C0 62.0914 17.9086 80 40 80Z" fill="#2775C8"/>
<path d="M42.2621 24.9021C42.2621 25.5169 42.0643 26.2363 42.3193 26.7138C42.5646 27.1716 43.3756 27.08 43.9233 27.2795C46.4609 28.1984 48.0796 29.9545 48.7713 32.5624C49.0427 33.5843 48.6192 34.1435 47.5728 34.1533C46.8991 34.1582 46.2238 34.1533 45.5502 34.1533C45.0204 34.1533 44.5708 33.926 44.4384 33.424C43.6633 30.4859 41.0031 30.0951 38.7206 30.2798C38.4066 30.3044 38.0927 30.3714 37.787 30.4482C35.7121 30.9666 34.7359 32.5133 35.1545 34.6046C35.3932 35.7998 36.2467 36.3851 37.2981 36.7759C38.7778 37.3253 40.3458 37.4545 41.8844 37.7242C43.3118 37.9744 44.7098 38.3194 46.0342 38.9276C48.4132 40.0215 49.5724 41.9182 49.7588 44.4901C50.1087 49.3184 46.783 52.2583 42.9292 53.0627C42.3766 53.1788 42.1902 53.3668 42.2278 53.9358C42.2834 54.7844 42.2474 55.6395 42.2408 56.493C42.2343 57.4316 41.8321 57.8387 40.9099 57.8452C40.2951 57.8501 39.6803 57.8501 39.0656 57.8452C38.1794 57.8387 37.7706 57.4299 37.7608 56.5274C37.751 55.615 37.7363 54.7027 37.769 53.7919C37.7837 53.3603 37.6692 53.1886 37.2147 53.1134C35.197 52.7831 33.369 52.0326 31.9384 50.5055C30.8053 49.2955 30.1774 47.8371 29.8962 46.2249C29.7556 45.4188 30.1921 44.9234 31.0113 44.907C31.8043 44.8923 32.5973 44.894 33.3903 44.907C33.9675 44.9169 34.4089 45.1883 34.5217 45.7687C35.1382 48.9031 37.3193 49.5915 39.6738 49.7206C40.9818 49.7926 42.2474 49.598 43.3772 48.8721C44.8847 47.9041 45.5208 46.0222 44.9256 44.3331C44.6673 43.599 44.1571 43.097 43.4769 42.7537C42.1836 42.1013 40.7742 41.8773 39.3648 41.6582C37.7592 41.408 36.1666 41.1088 34.6542 40.4842C30.3851 38.7216 29.0574 33.2605 32.0316 29.6929C33.2905 28.1821 34.937 27.34 36.819 26.9034C37.7575 26.686 37.7608 26.6991 37.7608 25.7131C37.7608 24.979 37.7575 24.2465 37.7624 23.5123C37.7673 22.5706 38.1712 22.1569 39.0917 22.1487C39.7065 22.1422 40.3213 22.1422 40.9361 22.1487C41.8108 22.1585 42.2327 22.5885 42.2441 23.478C42.2507 23.9538 42.2457 24.4296 42.2457 24.9054C42.2474 24.9021 42.2556 24.9021 42.2621 24.9021Z" fill="#FCFDFE"/>
<path d="M13.1892 39.9872C13.1892 28.3538 20.6222 18.1396 31.7242 14.5163C32.6742 14.2056 33.2971 14.6373 33.3135 15.6232C33.3233 16.1579 33.3167 16.6942 33.3151 17.2289C33.3135 18.3374 33.0322 18.7674 32.0087 19.1648C28.9708 20.342 26.2876 22.0686 24.0345 24.4231C19.6706 28.9849 17.4027 34.4411 17.7477 40.7475C18.2775 50.4319 23.2105 57.1209 32.1395 60.875C32.9276 61.2069 33.3004 61.7007 33.3135 62.5461C33.3233 63.1805 33.3266 63.8149 33.3135 64.4493C33.2939 65.3224 32.6496 65.7933 31.8174 65.5071C23.0077 62.4774 17.146 56.5389 14.306 47.6589C13.5097 45.172 13.1598 42.6033 13.1892 39.9872Z" fill="#FCFDFE"/>
<path d="M66.8122 39.9854C66.809 51.5616 59.4479 61.766 48.4604 65.4203C47.2357 65.8275 46.6831 65.4334 46.6814 64.1483C46.6798 63.6332 46.6782 63.1166 46.6814 62.6015C46.6863 61.6564 46.979 61.2215 47.8472 60.8847C52.9175 58.921 56.791 55.5757 59.4888 50.852C64.0866 42.8059 62.9421 32.1486 56.7419 25.2487C54.2714 22.5001 51.3348 20.4481 47.8832 19.1286C47.0379 18.8049 46.6945 18.3111 46.6831 17.4184C46.6749 16.784 46.6634 16.1479 46.6863 15.5152C46.7174 14.6715 47.3551 14.2202 48.1546 14.4851C54.9286 16.7186 60.0823 20.9354 63.5405 27.1748C65.7462 31.1496 66.809 35.4383 66.8122 39.9854Z" fill="#FCFDFE"/>
</svg>
