<svg width="80" height="80" viewBox="0 0 80 80" fill="none" xmlns="http://www.w3.org/2000/svg">
<circle cx="40" cy="40" r="39.85" fill="white" stroke="#8B8B8B" stroke-width="0.3"/>
<path d="M22.2863 40.5128C22.2991 40.507 22.3118 40.507 22.3245 40.5128C22.4705 40.5035 22.591 40.4236 22.7184 40.3656C27.7359 38.0857 32.7522 35.8035 37.7708 33.5258C38.525 33.1841 39.2676 32.8145 40.0415 32.5156C40.0485 32.694 40.0612 32.8736 40.0612 33.052C40.0635 39.0496 40.0647 45.0483 40.0658 51.0459C39.9245 51.0424 39.8225 50.9497 39.7102 50.8837C34.0115 47.5159 28.314 44.147 22.6153 40.7792C22.5111 40.7178 22.4149 40.6344 22.2852 40.6263C22.2863 40.5881 22.2863 40.5498 22.2863 40.5128Z" fill="#393939"/>
<path d="M40.0653 51.0457C40.0642 45.0482 40.063 39.0494 40.0607 33.0519C40.0607 32.8735 40.048 32.6939 40.041 32.5155L40.0433 32.5132C40.1325 32.5421 40.2264 32.5618 40.3109 32.6012C42.7913 33.7261 45.2705 34.8522 47.7485 35.9794C50.7502 37.3453 53.7507 38.7146 56.7547 40.0736C57.0698 40.2161 57.3629 40.4211 57.7221 40.4547L57.7186 40.4535C57.7394 40.4732 57.7591 40.4929 57.78 40.5126C57.7974 40.5115 57.8159 40.5115 57.8333 40.5115C57.8333 40.53 57.8333 40.5497 57.8333 40.5682C56.099 41.5958 54.3647 42.6246 52.6304 43.651C49.8906 45.2729 47.1507 46.8948 44.4097 48.5156C43.0554 49.3172 41.7023 50.1189 40.3469 50.9183C40.26 50.9716 40.1603 51.004 40.0653 51.0457Z" fill="#141414"/>
<path d="M40.0771 68.8836C39.9358 68.9149 39.923 68.7816 39.8732 68.7121C38.6 66.9246 37.3303 65.1347 36.0594 63.3436C31.5737 57.0205 27.088 50.6986 22.6023 44.3755C22.5235 44.2643 22.4436 44.1542 22.3613 44.0384C22.4725 44.0001 22.5328 44.0778 22.6011 44.1183C23.631 44.7242 24.6598 45.3324 25.6897 45.9406C27.7159 47.1374 29.741 48.3341 31.766 49.5308C34.426 51.1029 37.0859 52.675 39.7458 54.2471C39.8512 54.3096 39.9532 54.3757 40.0574 54.4406C40.0574 59.1139 40.0574 63.7873 40.0586 68.4607C40.0586 68.6021 40.0702 68.7422 40.0771 68.8836Z" fill="#8B8B8B"/>
<path d="M40.0783 68.8844C40.0725 68.7431 40.0598 68.6029 40.0598 68.4616C40.0586 63.7882 40.0586 59.1148 40.0586 54.4414C42.006 53.2887 43.9523 52.1337 45.9009 50.9821C49.7008 48.7358 53.5007 46.4918 57.3017 44.2477C57.4153 44.1805 57.5346 44.1249 57.6516 44.0647C57.6643 44.0763 57.6759 44.089 57.6887 44.1006C57.1256 44.9834 56.4942 45.8187 55.8884 46.6713C50.7052 53.978 45.5175 61.2823 40.3297 68.5855C40.2555 68.6921 40.1999 68.8172 40.0783 68.8844Z" fill="#3C3C3B"/>
<path d="M40.0412 32.5158C39.2673 32.8147 38.5247 33.1842 37.7705 33.526C32.7519 35.8036 27.7356 38.0859 22.7181 40.3658C22.5907 40.4237 22.4702 40.5037 22.3242 40.5129C23.7364 38.1635 25.1475 35.814 26.562 33.4658C30.9898 26.1151 35.4199 18.7655 39.8489 11.4149C39.8975 11.3338 39.9392 11.2457 40.0029 11.1797C40.0667 11.1148 40.0597 11.2052 40.0794 11.2341C40.0725 11.3743 40.0586 11.5156 40.0586 11.6558C40.0574 18.4574 40.0574 25.2589 40.0574 32.0605C40.0574 32.2111 40.0493 32.3617 40.0447 32.5123L40.0412 32.5158Z" fill="#8B8B8B"/>
<path d="M40.043 32.5131C40.0476 32.3625 40.0557 32.2118 40.0557 32.0612C40.0569 25.2597 40.0557 18.4581 40.0569 11.6566C40.0569 11.5164 40.0708 11.375 40.0777 11.2349C40.2156 11.2731 40.248 11.404 40.3094 11.5048C43.164 16.2384 46.0162 20.9732 48.8696 25.7069C51.7716 30.5216 54.6737 35.3363 57.5746 40.1522C57.6325 40.2484 57.7043 40.3387 57.7217 40.4557C57.3626 40.4221 57.0695 40.2171 56.7544 40.0746C53.7492 38.7157 50.7498 37.3463 47.7482 35.9804C45.269 34.8532 42.7898 33.7272 40.3106 32.6023C40.226 32.5629 40.1333 32.542 40.043 32.5131Z" fill="#343434"/>
</svg>
