<svg width="59" height="59" viewBox="0 0 59 59" fill="none" xmlns="http://www.w3.org/2000/svg">
<rect width="59" height="59" fill="#404040"/>
<path d="M12.2917 27.0417H22.125C24.8292 27.0417 27.0417 24.8292 27.0417 22.125V12.2917C27.0417 9.5875 24.8292 7.375 22.125 7.375H12.2917C9.5875 7.375 7.375 9.5875 7.375 12.2917V22.125C7.375 24.8292 9.5875 27.0417 12.2917 27.0417ZM12.2917 12.2917H22.125V22.125H12.2917V12.2917Z" fill="white"/>
<path d="M12.2917 51.625H22.125C24.8292 51.625 27.0417 49.4125 27.0417 46.7084V36.875C27.0417 34.1709 24.8292 31.9584 22.125 31.9584H12.2917C9.5875 31.9584 7.375 34.1709 7.375 36.875V46.7084C7.375 49.4125 9.5875 51.625 12.2917 51.625ZM12.2917 36.875H22.125V46.7084H12.2917V36.875Z" fill="white"/>
<path d="M31.958 12.2917V22.125C31.958 24.8292 34.1705 27.0417 36.8747 27.0417H46.708C49.4122 27.0417 51.6247 24.8292 51.6247 22.125V12.2917C51.6247 9.5875 49.4122 7.375 46.708 7.375H36.8747C34.1705 7.375 31.958 9.5875 31.958 12.2917ZM46.708 22.125H36.8747V12.2917H46.708V22.125Z" fill="white"/>
<path d="M51.6247 50.3959V47.9375C51.6247 47.2492 51.0838 46.7084 50.3955 46.7084H47.9372C47.2488 46.7084 46.708 47.2492 46.708 47.9375V50.3959C46.708 51.0842 47.2488 51.625 47.9372 51.625H50.3955C51.0838 51.625 51.6247 51.0842 51.6247 50.3959Z" fill="white"/>
<path d="M31.958 33.1875V35.6459C31.958 36.3342 32.4988 36.875 33.1872 36.875H35.6455C36.3338 36.875 36.8747 36.3342 36.8747 35.6459V33.1875C36.8747 32.4992 36.3338 31.9584 35.6455 31.9584H33.1872C32.4988 31.9584 31.958 32.4992 31.958 33.1875Z" fill="white"/>
<path d="M40.5625 36.875H38.1042C37.4158 36.875 36.875 37.4158 36.875 38.1042V40.5625C36.875 41.2508 37.4158 41.7917 38.1042 41.7917H40.5625C41.2508 41.7917 41.7917 41.2508 41.7917 40.5625V38.1042C41.7917 37.4158 41.2508 36.875 40.5625 36.875Z" fill="white"/>
<path d="M31.958 43.0208V45.4791C31.958 46.1675 32.4988 46.7083 33.1872 46.7083H35.6455C36.3338 46.7083 36.8747 46.1675 36.8747 45.4791V43.0208C36.8747 42.3325 36.3338 41.7916 35.6455 41.7916H33.1872C32.4988 41.7916 31.958 42.3325 31.958 43.0208Z" fill="white"/>
<path d="M38.1042 51.625H40.5625C41.2508 51.625 41.7917 51.0842 41.7917 50.3959V47.9375C41.7917 47.2492 41.2508 46.7084 40.5625 46.7084H38.1042C37.4158 46.7084 36.875 47.2492 36.875 47.9375V50.3959C36.875 51.0842 37.4158 51.625 38.1042 51.625Z" fill="white"/>
<path d="M43.0212 46.7083H45.4795C46.1678 46.7083 46.7087 46.1675 46.7087 45.4791V43.0208C46.7087 42.3325 46.1678 41.7916 45.4795 41.7916H43.0212C42.3328 41.7916 41.792 42.3325 41.792 43.0208V45.4791C41.792 46.1675 42.3328 46.7083 43.0212 46.7083Z" fill="white"/>
<path d="M45.4795 31.9584H43.0212C42.3328 31.9584 41.792 32.4992 41.792 33.1875V35.6459C41.792 36.3342 42.3328 36.875 43.0212 36.875H45.4795C46.1678 36.875 46.7087 36.3342 46.7087 35.6459V33.1875C46.7087 32.4992 46.1678 31.9584 45.4795 31.9584Z" fill="white"/>
<path d="M47.9372 41.7917H50.3955C51.0838 41.7917 51.6247 41.2508 51.6247 40.5625V38.1042C51.6247 37.4158 51.0838 36.875 50.3955 36.875H47.9372C47.2488 36.875 46.708 37.4158 46.708 38.1042V40.5625C46.708 41.2508 47.2488 41.7917 47.9372 41.7917Z" fill="white"/>
</svg>
