<svg width="431" height="439" viewBox="0 0 431 439" fill="none" xmlns="http://www.w3.org/2000/svg">
<path fill-rule="evenodd" clip-rule="evenodd" d="M174.856 140.314H200.628V166.087H174.856V140.314ZM247.4 180.152H282.758L232.805 230.794L282.758 295.107H249.914L213.279 247.118L200.648 259.277V295.107H174.856V205.905H152.973L160.182 180.133H174.856H200.628H200.648V225.529L247.4 180.152Z" fill="url(#paint0_linear)"/>
<path d="M368.614 75.3862C328.668 35.441 274.491 13 218 13V98.2C251.895 98.2 284.401 111.665 308.368 135.632L368.614 75.3862Z" fill="#B3B3FF"/>
<path d="M431 226C431 169.509 408.559 115.332 368.614 75.3863L308.368 135.632C332.335 159.599 345.8 192.105 345.8 226H431Z" fill="#9797FB"/>
<path d="M368.614 376.614C408.559 336.669 431 282.491 431 226L345.8 226C345.8 259.895 332.335 292.401 308.368 316.368L368.614 376.614Z" fill="#C4CDFF"/>
<path d="M218 439C274.491 439 328.668 416.559 368.614 376.614L308.368 316.368C284.401 340.335 251.895 353.8 218 353.8L218 439Z" fill="#B3B3FF"/>
<path d="M67.3863 376.614C107.331 416.559 161.509 439 218 439L218 353.8C184.105 353.8 151.599 340.335 127.632 316.368L67.3863 376.614Z" fill="#C4CDFF"/>
<path d="M5 226C5 282.491 27.441 336.668 67.3862 376.614L127.632 316.368C103.665 292.401 90.2 259.895 90.2 226H5Z" fill="#9797FB"/>
<path d="M67.3862 75.3863C27.441 115.332 5 169.509 5 226H90.2C90.2 192.105 103.665 159.599 127.632 135.632L67.3862 75.3863Z" fill="#B3B3FF"/>
<path d="M39.369 169.151L39.1385 169.054C38.8965 168.953 38.6551 168.851 38.4141 168.749C37.8799 168.523 37.3471 168.298 36.8114 168.078L39.369 169.151ZM39.369 169.151L39.3917 169.097M39.369 169.151L39.3917 169.097M39.3917 169.097C39.5166 169.142 39.6388 169.186 39.7618 169.234L39.3917 169.097ZM57.4535 149.538C58.8642 150.392 60.217 151.323 61.3658 152.522M57.4535 149.538L57.583 149.324C59.0006 150.183 60.3751 151.127 61.5463 152.349L61.5463 152.349C62.8903 153.752 63.6487 155.434 63.9482 157.329C64.0751 158.132 64.1569 158.949 64.238 159.757C64.2858 160.234 64.3333 160.708 64.3896 161.175L64.3896 161.175C64.5289 162.332 64.7126 163.478 64.9721 164.611L64.9721 164.611C65.1498 165.387 64.8953 166.144 64.2071 166.563L64.207 166.563C62.5614 167.567 61.058 168.764 59.5398 169.974C59.4484 170.047 59.357 170.12 59.2654 170.192L59.2654 170.192C58.2764 170.979 57.2278 171.709 56.008 172.178C54.5625 172.734 53.0734 172.829 51.5737 172.687L51.5973 172.439L51.5737 172.687C50.0163 172.54 48.507 172.176 47.0233 171.749L47.0233 171.749C44.5546 171.038 42.1474 170.157 39.7619 169.234L61.3658 152.522M57.4535 149.538L57.583 149.324L57.4535 149.538ZM61.3658 152.522C62.6704 153.884 63.4087 155.517 63.7013 157.368C63.8273 158.165 63.9076 158.968 63.9879 159.77C64.0358 160.248 64.0837 160.727 64.1414 161.205C64.2815 162.368 64.4665 163.524 64.7284 164.667C64.8857 165.353 64.6603 165.994 64.0769 166.35M61.3658 152.522L64.0769 166.35M43.0292 147.845L43.0292 147.845C43.5606 146.951 43.9916 146.005 44.3928 145.034L44.3928 145.034C44.5999 144.533 44.9576 144.171 45.4031 143.994C45.8483 143.817 46.3591 143.834 46.857 144.051C46.857 144.051 46.857 144.051 46.857 144.051L43.0292 147.845ZM43.0292 147.845C41.7086 150.068 39.948 151.822 37.6595 153.032M43.0292 147.845L37.6595 153.032M48.7502 148.768L48.749 148.767L48.7452 148.765L48.7414 148.764L48.7376 148.762L48.7338 148.761L48.73 148.759L48.7262 148.757L48.7224 148.756L48.7186 148.754L48.7148 148.753L48.711 148.751L48.7073 148.749L48.7035 148.748L48.6997 148.746L48.6959 148.745L48.6921 148.743L48.6883 148.741L48.6845 148.74L48.6807 148.738L48.6769 148.737L48.6731 148.735L48.6693 148.734L48.6655 148.732L48.6617 148.73L48.6579 148.729L48.6541 148.727L48.6503 148.726L48.6465 148.724L48.6427 148.722L48.6389 148.721L48.6351 148.719L48.6313 148.718L48.6275 148.716L48.6237 148.714L48.6199 148.713L48.6161 148.711L48.6123 148.71L48.6085 148.708L48.6047 148.706L48.6009 148.705L48.5971 148.703L48.5933 148.702L48.5895 148.7L48.5857 148.698L48.582 148.697L48.5782 148.695L48.5744 148.694L48.5706 148.692L48.5668 148.69L48.563 148.689L48.5592 148.687L48.5554 148.686L48.5516 148.684L48.5478 148.682L48.544 148.681L48.5402 148.679L48.5364 148.678L48.5326 148.676L48.5288 148.675L48.525 148.673L48.5212 148.671L48.5174 148.67L48.5136 148.668L48.5098 148.667L48.506 148.665L48.5022 148.663L48.4984 148.662L48.4946 148.66L48.4908 148.659L48.487 148.657L48.4832 148.655L48.4794 148.654L48.4756 148.652L48.4718 148.651L48.468 148.649L48.4643 148.647L48.4605 148.646L48.4567 148.644L48.4529 148.643L48.4491 148.641L48.4453 148.639L48.4415 148.638L48.4377 148.636L48.4339 148.635L48.4301 148.633L48.4263 148.631L48.4225 148.63L48.4187 148.628L48.4149 148.627L48.4111 148.625L48.4073 148.623L48.4035 148.622L48.3997 148.62L48.3959 148.619L48.3921 148.617L48.3883 148.615L48.3845 148.614L48.3807 148.612L48.3769 148.611L48.3731 148.609L48.3693 148.608L48.3655 148.606L48.3617 148.604L48.3579 148.603L48.3542 148.601L48.3504 148.6L48.3466 148.598L48.3428 148.596L48.339 148.595L48.3352 148.593L48.3314 148.592L48.3276 148.59L48.3238 148.588L48.32 148.587L48.3162 148.585L48.3124 148.584L48.3086 148.582L48.3048 148.58L48.301 148.579L48.2972 148.577L48.2934 148.576L48.2896 148.574L48.2858 148.572L48.282 148.571L48.2782 148.569L48.2744 148.568L48.2706 148.566L48.2668 148.564L48.263 148.563L48.2592 148.561L48.2554 148.56L48.2516 148.558L48.2479 148.556L48.2441 148.555L48.2403 148.553L48.2365 148.552L48.2327 148.55L48.2289 148.549L48.2251 148.547L48.2213 148.545L48.2175 148.544L48.2137 148.542L48.2099 148.541L48.2061 148.539L48.2023 148.537L48.1985 148.536L48.1947 148.534L48.1909 148.533L48.1871 148.531L48.1833 148.529L48.1795 148.528L48.1757 148.526L48.1719 148.525L48.1681 148.523L48.1643 148.521L48.1605 148.52L48.1567 148.518L48.1529 148.517L48.1491 148.515L48.1454 148.513L48.1416 148.512L48.1378 148.51L48.134 148.509L48.1302 148.507L48.1264 148.505L48.1226 148.504L48.1188 148.502L48.115 148.501L48.1112 148.499L48.1074 148.497L48.1036 148.496L48.0998 148.494L48.096 148.493L48.0922 148.491L48.0884 148.49L48.0846 148.488L48.0808 148.486L48.077 148.485L48.0732 148.483L48.0694 148.482L48.0656 148.48L48.0618 148.478L48.058 148.477L48.0542 148.475L48.0504 148.474L48.0466 148.472L48.0429 148.47L48.0391 148.469L48.0353 148.467L48.0315 148.466L48.0277 148.464L48.0239 148.462L48.0201 148.461L48.0163 148.459L48.0125 148.458L48.0087 148.456L48.0049 148.454L48.0011 148.453L47.9973 148.451L47.9935 148.45L47.9897 148.448L47.9859 148.446L47.9821 148.445L47.9783 148.443L47.9745 148.442L47.9707 148.44L47.9669 148.438L47.9631 148.437L47.9593 148.435L47.9555 148.434L47.9517 148.432L47.9479 148.431L47.9441 148.429L47.9404 148.427L47.9366 148.426L47.9328 148.424L47.929 148.423L47.9252 148.421L47.9214 148.419L47.9176 148.418L47.9138 148.416L47.91 148.415L47.9062 148.413L47.9024 148.411L47.8986 148.41L47.8948 148.408L47.891 148.407L47.8872 148.405L47.8834 148.403L47.8796 148.402L47.8758 148.4L47.872 148.399L47.8682 148.397L47.8644 148.395L47.8606 148.394L47.8568 148.392L47.853 148.391L47.8492 148.389L47.8454 148.387L47.8416 148.386L47.8379 148.384L47.8341 148.383L47.8303 148.381L47.8265 148.379L47.8227 148.378L47.8189 148.376L47.8151 148.375L47.8113 148.373L47.8075 148.372L47.8037 148.37L47.7999 148.368L47.7961 148.367L47.7923 148.365L47.7885 148.364L47.7847 148.362L47.7809 148.36L47.7771 148.359L47.7733 148.357L47.7695 148.356L47.7657 148.354L47.7619 148.352L47.7581 148.351L47.7543 148.349L47.7505 148.348L47.7467 148.346L47.7429 148.344L47.7391 148.343L47.7353 148.341L47.7316 148.34L47.7278 148.338L47.724 148.336L47.7202 148.335L47.7164 148.333L47.7126 148.332L47.7088 148.33L47.705 148.328L47.7012 148.327L47.6974 148.325L47.6936 148.324L47.6898 148.322L47.686 148.32L47.6822 148.319L47.6784 148.317L47.6746 148.316L47.6708 148.314L47.667 148.312L47.6632 148.311L47.6594 148.309L47.6556 148.308L47.6518 148.306L47.648 148.305L47.6442 148.303L47.6404 148.301L47.6366 148.3L47.6328 148.298L47.629 148.297L47.6253 148.295L47.6215 148.293L47.6177 148.292L47.6139 148.29L47.6101 148.289L47.6063 148.287L47.6025 148.285L47.5987 148.284L47.5949 148.282L47.5911 148.281L47.5873 148.279L47.5835 148.277L47.5797 148.276L47.5759 148.274L47.5721 148.273L47.5683 148.271L47.5645 148.269L47.5607 148.268L47.5569 148.266L47.5531 148.265L47.5493 148.263L47.5455 148.261L47.5417 148.26L47.5379 148.258L47.5341 148.257L47.5303 148.255L47.5265 148.253L47.5227 148.252L47.5189 148.25L47.5152 148.249L47.5114 148.247L47.5076 148.246L47.5038 148.244L47.5 148.242L47.4962 148.241L47.4924 148.239L47.4886 148.238L47.4848 148.236L47.481 148.234L47.4772 148.233L47.4734 148.231L47.4696 148.23L47.4658 148.228L47.462 148.226L47.4582 148.225L47.4544 148.223L47.4506 148.222L47.4468 148.22L47.443 148.218L47.4392 148.217L47.4354 148.215L47.4316 148.214L47.4278 148.212L47.424 148.21L47.4202 148.209L47.4164 148.207L47.4126 148.206L47.4088 148.204L47.405 148.202L47.4012 148.201L47.3974 148.199L47.3937 148.198L47.3899 148.196L47.3861 148.194L47.3823 148.193L47.3785 148.191L47.3747 148.19L47.3709 148.188L47.3671 148.186L47.3633 148.185L47.3595 148.183L47.3557 148.182L47.3519 148.18L47.3481 148.179L47.3443 148.177L47.3405 148.175L47.3367 148.174L47.3329 148.172L47.3291 148.171L47.3253 148.169L47.3215 148.167L47.3177 148.166L47.3139 148.164L47.3101 148.163L47.3063 148.161L47.3025 148.159L47.2987 148.158L47.2949 148.156L47.2911 148.155L47.2873 148.153L47.2835 148.151L47.2797 148.15L47.2759 148.148L47.2721 148.147L47.2683 148.145L47.2646 148.143L47.2608 148.142L47.257 148.14L47.2532 148.139L47.2494 148.137L47.2456 148.135L47.2418 148.134L47.238 148.132L47.2342 148.131L47.2304 148.129L47.2266 148.127L47.2228 148.126L47.219 148.124L47.2152 148.123L47.2114 148.121L47.2076 148.12L47.2038 148.118L47.2 148.116L47.1962 148.115L47.1924 148.113L47.1886 148.112L47.1848 148.11L47.181 148.108L47.1772 148.107L47.1734 148.105L47.1696 148.104L47.1658 148.102L47.162 148.1L47.1582 148.099L47.1544 148.097L47.1506 148.096L47.1468 148.094L47.143 148.092L47.1392 148.091L47.1354 148.089L47.1316 148.088L47.1278 148.086L47.124 148.084L47.1202 148.083L47.1165 148.081L47.1127 148.08L47.1089 148.078L47.1051 148.076L47.1013 148.075L47.0975 148.073L47.0937 148.072L47.0899 148.07L47.0861 148.068L47.0823 148.067L47.0785 148.065L47.0747 148.064L47.0709 148.062L47.0671 148.06L47.0633 148.059L47.0595 148.057L47.0557 148.056L47.0519 148.054L47.0481 148.052L47.0443 148.051L47.0405 148.049L47.0367 148.048C47.0195 148.04 47.0034 148.034 46.9884 148.027C46.9814 148.042 46.9737 148.058 46.9653 148.075L46.9653 148.075C46.6815 148.65 46.3804 149.219 46.0465 149.772L46.0465 149.772C44.6458 152.092 42.8358 154.025 40.5381 155.489L40.5378 155.489C40.5217 155.5 40.5115 155.507 40.5053 155.513C40.506 155.522 40.508 155.538 40.5129 155.561L40.5129 155.561C40.8816 157.29 40.9605 159.035 40.7765 160.789L40.7765 160.789C40.6111 162.362 40.2464 163.886 39.699 165.367M48.7502 148.768L39.7059 165.377C39.7026 165.376 39.6995 165.375 39.6965 165.374M48.7502 148.768L48.7323 148.81L48.9511 148.911C50.824 149.779 52.6807 150.666 54.4797 151.663L54.4797 151.663C55.6884 152.333 56.853 153.061 57.9508 153.897L58.1022 153.698L57.9508 153.897C59.4719 155.056 60.3167 156.547 60.5044 158.454L60.5044 158.454C60.5273 158.686 60.5497 158.918 60.5722 159.15C60.7058 160.533 60.8406 161.927 61.0768 163.309L61.0768 163.309C61.1287 163.613 61.181 163.917 61.2368 164.222C60.1112 164.959 59.0512 165.799 58.0014 166.63C57.4796 167.043 56.9604 167.454 56.4369 167.849L56.4368 167.849C55.5507 168.52 54.6153 169.018 53.523 169.13C52.6726 169.217 51.8245 169.146 50.9687 169.003C49.46 168.751 47.9908 168.328 46.5235 167.857C44.2217 167.118 41.9622 166.261 39.7059 165.377L48.7502 148.768ZM39.699 165.367L39.4645 165.28L39.6991 165.367C39.699 165.367 39.699 165.367 39.699 165.367ZM39.699 165.367C39.6981 165.369 39.6973 165.371 39.6965 165.374M39.6965 165.374C39.683 165.368 39.6726 165.363 39.6645 165.359C39.6545 165.354 39.6498 165.351 39.6485 165.35C39.6472 165.349 39.6506 165.351 39.6557 165.357C39.6612 165.364 39.6675 165.373 39.6727 165.385C39.6778 165.396 39.6803 165.407 39.6813 165.415C39.6822 165.423 39.6816 165.427 39.6817 165.426C39.6819 165.424 39.6827 165.419 39.6855 165.408C39.6879 165.399 39.6914 165.388 39.6965 165.374ZM64.0769 166.35C62.4174 167.362 60.9025 168.569 59.3873 169.776M64.0769 166.35L59.3873 169.776M35.7112 167.062C35.5206 166.611 35.5405 166.093 35.7664 165.571L35.7112 167.062ZM35.7112 167.062C35.9013 167.512 36.2871 167.863 36.8113 168.078L35.7112 167.062ZM37.1571 160.918C37.4249 158.995 37.3049 157.106 36.7448 155.249L37.1571 160.918ZM37.1571 160.918C36.9321 162.533 36.4183 164.066 35.7664 165.571L37.1571 160.918ZM37.6595 153.032C37.2393 153.254 36.9338 153.571 36.7734 153.962M37.6595 153.032L36.7734 153.962M36.7734 153.962C36.6132 154.352 36.6072 154.794 36.7447 155.249L36.7734 153.962ZM59.3873 169.776C59.2948 169.849 59.2023 169.923 59.1098 169.997L59.3873 169.776Z" fill="white" stroke="white" stroke-width="0.5"/>
<path d="M273.412 401.833C275.927 400.666 278.442 399.498 280.958 398.329C283.473 397.161 285.988 395.993 288.504 394.825L288.504 394.825L301.255 381.882L301.198 381.743C301.198 381.744 301.198 381.744 301.198 381.744C300.298 382.114 299.42 382.539 298.547 382.962C298.391 383.037 298.235 383.112 298.08 383.187L298.08 383.187C297.921 383.264 297.826 383.276 297.757 383.259C297.689 383.242 297.609 383.186 297.504 383.032C296.645 381.776 295.778 380.518 294.86 379.299C294.576 378.922 294.296 378.537 294.015 378.151C293.146 376.955 292.266 375.745 291.221 374.711C289.985 373.489 288.47 373.068 287.073 373.358C285.678 373.648 284.42 374.643 283.685 376.215L283.821 376.278L283.685 376.215C283.665 376.258 283.645 376.301 283.625 376.343C283.363 376.905 283.103 377.461 282.794 377.986C282.378 378.69 281.91 379.155 281.358 379.413C280.805 379.672 280.152 379.732 279.35 379.595C278.847 379.509 278.353 379.378 277.852 379.246C277.64 379.189 277.427 379.133 277.211 379.079L277.211 379.079C274.095 378.306 271.35 380.408 271.358 383.611L271.358 383.611C271.361 384.377 271.451 385.16 271.63 385.906L271.63 385.906C272.273 388.59 272.946 391.268 273.664 393.934L273.664 393.934C273.737 394.203 273.722 394.344 273.67 394.437C273.615 394.534 273.5 394.617 273.272 394.715C272.372 395.101 271.488 395.524 270.608 395.945L270.608 395.946L270.608 395.946C268.81 396.809 268.072 398.645 268.864 400.352C269.263 401.214 269.937 401.803 270.747 402.066C271.556 402.328 272.491 402.261 273.412 401.833ZM273.412 401.833L273.349 401.697L273.412 401.833ZM297.38 383.117C297.606 383.446 297.807 383.485 298.145 383.322L291.116 374.818C292.151 375.843 293.021 377.039 293.888 378.232C294.171 378.62 294.453 379.008 294.74 379.389C295.656 380.605 296.521 381.86 297.38 383.117ZM289.439 376.657L289.439 376.657C290.319 377.612 291.112 378.641 291.928 379.701C292.257 380.127 292.589 380.558 292.932 380.991L292.926 380.994L292.89 381.011L292.854 381.027L292.819 381.044L292.783 381.061L292.747 381.077L292.711 381.094L292.676 381.11L292.64 381.127L292.604 381.143L292.568 381.16L292.533 381.177L292.497 381.193L292.461 381.21L292.426 381.226L292.39 381.243L292.354 381.26L292.319 381.276L292.283 381.293L292.247 381.309L292.211 381.326L292.176 381.342L292.14 381.359L292.104 381.376L292.069 381.392L292.033 381.409L291.997 381.425L291.962 381.442L291.926 381.458L291.891 381.475L291.855 381.492L291.819 381.508L291.784 381.525L291.748 381.541L291.712 381.558L291.677 381.574L291.641 381.591L291.605 381.607L291.57 381.624L291.534 381.64L291.499 381.657L291.463 381.674L291.427 381.69L291.392 381.707L291.356 381.723L291.321 381.74L291.285 381.756L291.249 381.773L291.214 381.789L291.178 381.806L291.143 381.822L291.107 381.839L291.072 381.855L291.036 381.872L291.001 381.888L290.965 381.905L290.929 381.921L290.894 381.938L290.858 381.954L290.823 381.971L290.787 381.987L290.752 382.004L290.716 382.02L290.681 382.037L290.645 382.053L290.61 382.07L290.574 382.086L290.539 382.103L290.503 382.119L290.468 382.136L290.432 382.152L290.396 382.169L290.361 382.185L290.325 382.202L290.29 382.218L290.255 382.235L290.219 382.251L290.184 382.268L290.148 382.284L290.113 382.301L290.077 382.317L290.042 382.334L290.006 382.35L289.971 382.367L289.935 382.383L289.9 382.4L289.864 382.416L289.829 382.433L289.793 382.449L289.758 382.466L289.722 382.482L289.687 382.498L289.652 382.515L289.616 382.531L289.581 382.548L289.545 382.564L289.51 382.581L289.474 382.597L289.439 382.614L289.404 382.63L289.368 382.647L289.333 382.663L289.297 382.679L289.262 382.696L289.226 382.712L289.191 382.729L289.156 382.745L289.12 382.762L289.085 382.778L289.049 382.795L289.014 382.811L288.979 382.827L288.943 382.844L288.908 382.86L288.873 382.877L288.837 382.893L288.802 382.91L288.766 382.926L288.731 382.943L288.696 382.959L288.66 382.975L288.625 382.992L288.59 383.008L288.554 383.025L288.519 383.041L288.483 383.058L288.448 383.074L288.413 383.09L288.377 383.107L288.342 383.123L288.307 383.14L288.271 383.156L288.236 383.172L288.201 383.189L288.165 383.205L288.13 383.222L288.095 383.238L288.059 383.255L288.024 383.271L287.989 383.287L287.953 383.304L287.918 383.32L287.883 383.337L287.847 383.353L287.812 383.369L287.777 383.386L287.741 383.402L287.706 383.419L287.671 383.435L287.636 383.451L287.6 383.468L287.565 383.484L287.53 383.501L287.494 383.517L287.459 383.533L287.424 383.55L287.388 383.566L287.353 383.583L287.318 383.599L287.283 383.615L287.247 383.632L287.212 383.648L287.177 383.664L287.141 383.681L287.106 383.697L287.071 383.714L287.036 383.73L287 383.746L286.965 383.763L286.93 383.779L286.895 383.796L286.859 383.812L286.824 383.828L286.789 383.845L286.754 383.861L286.718 383.877L286.683 383.894L286.648 383.91L286.612 383.927L286.577 383.943L286.542 383.959L286.507 383.976L286.471 383.992L286.436 384.008L286.401 384.025L286.366 384.041L286.331 384.058L286.295 384.074L286.26 384.09L286.225 384.107L286.19 384.123L286.154 384.139L286.119 384.156L286.084 384.172L286.049 384.188L286.013 384.205L285.978 384.221L285.943 384.238L285.908 384.254L285.872 384.27L285.837 384.287L285.802 384.303L285.767 384.319L285.732 384.336L285.696 384.352L285.661 384.368L285.626 384.385L285.591 384.401L285.556 384.417L285.52 384.434L285.485 384.45L285.45 384.467L285.415 384.483L285.379 384.499L285.344 384.516L285.309 384.532L285.274 384.548L285.239 384.565L285.203 384.581L285.168 384.597L285.133 384.614L285.098 384.63L285.063 384.646L285.027 384.663L284.992 384.679L284.957 384.695L284.922 384.712L284.887 384.728L284.852 384.745L284.816 384.761L284.781 384.777L284.746 384.794L284.711 384.81L284.676 384.826L284.64 384.843L284.605 384.859L284.57 384.875L284.535 384.892L284.5 384.908L284.464 384.924L284.429 384.941L284.394 384.957L284.359 384.973L284.324 384.99L284.289 385.006L284.253 385.022L284.218 385.039L284.183 385.055L284.148 385.071L284.113 385.088L284.077 385.104L284.042 385.12L284.007 385.137L283.972 385.153L283.937 385.169L283.902 385.186L283.866 385.202L283.831 385.218L283.796 385.235L283.761 385.251L283.726 385.267L283.691 385.284L283.655 385.3L283.62 385.316L283.585 385.333L283.55 385.349L283.515 385.365L283.48 385.382L283.444 385.398L283.409 385.414L283.374 385.431L283.339 385.447L283.304 385.463L283.269 385.48L283.233 385.496L283.198 385.512L283.163 385.529L283.128 385.545L283.093 385.561L283.058 385.578L283.022 385.594L282.987 385.61L282.952 385.627L282.917 385.643L282.882 385.659L282.847 385.676L282.811 385.692L282.776 385.708L282.741 385.725L282.706 385.741L282.671 385.757L282.636 385.774L282.6 385.79L282.565 385.806L282.53 385.823L282.495 385.839L282.46 385.855L282.425 385.872L282.39 385.888L282.354 385.904L282.319 385.921L282.284 385.937L282.249 385.953L282.214 385.97L282.179 385.986L282.143 386.002L282.108 386.019L282.073 386.035L282.038 386.051L282.003 386.068L281.968 386.084L281.932 386.1L281.897 386.117L281.862 386.133L281.827 386.149L281.792 386.166L281.757 386.182L281.721 386.198L281.686 386.215L281.651 386.231L281.616 386.247L281.581 386.264L281.546 386.28L281.51 386.296L281.475 386.313L281.44 386.329L281.405 386.345L281.37 386.362L281.334 386.378L281.299 386.394L281.264 386.411L281.229 386.427L281.194 386.443L281.159 386.46L281.123 386.476L281.088 386.492L281.053 386.509L281.018 386.525L280.983 386.541L280.948 386.558L280.912 386.574L280.877 386.591L280.842 386.607L280.807 386.623L280.772 386.64L280.736 386.656L280.701 386.672L280.666 386.689L280.631 386.705L280.596 386.721L280.561 386.738L280.525 386.754L280.49 386.77L280.455 386.787L280.42 386.803L280.385 386.819L280.349 386.836L280.314 386.852L280.279 386.868L280.244 386.885L280.209 386.901L280.173 386.917L280.138 386.934L280.103 386.95L280.068 386.966L280.033 386.983L279.997 386.999L279.962 387.016L279.927 387.032L279.892 387.048L279.857 387.065L279.821 387.081L279.786 387.097L279.751 387.114L279.716 387.13L279.681 387.146L279.645 387.163L279.61 387.179L279.575 387.195L279.54 387.212L279.504 387.228L279.469 387.244L279.434 387.261L279.399 387.277L279.364 387.294L279.328 387.31L279.293 387.326L279.258 387.343L279.223 387.359L279.187 387.375L279.152 387.392L279.117 387.408L279.082 387.424L279.047 387.441L279.011 387.457L278.976 387.474L278.941 387.49L278.906 387.506L278.87 387.523L278.835 387.539L278.8 387.555L278.765 387.572L278.729 387.588L278.694 387.605L278.659 387.621L278.624 387.637L278.588 387.654L278.553 387.67L278.518 387.686L278.483 387.703L278.447 387.719L278.412 387.736L278.377 387.752L278.342 387.768L278.306 387.785L278.271 387.801L278.236 387.817L278.2 387.834L278.165 387.85L278.13 387.867L278.095 387.883L278.059 387.899L278.024 387.916L277.989 387.932L277.953 387.949L277.918 387.965L277.883 387.981L277.848 387.998L277.812 388.014L277.777 388.031L277.742 388.047L277.706 388.063L277.671 388.08L277.636 388.096L277.601 388.113L277.565 388.129L277.53 388.145L277.495 388.162L277.459 388.178L277.424 388.195L277.389 388.211L277.353 388.227L277.318 388.244L277.283 388.26L277.247 388.277L277.212 388.293L277.177 388.309L277.141 388.326L277.106 388.342L277.071 388.359L277.035 388.375L277 388.391L276.965 388.408L276.929 388.424L276.894 388.441L276.859 388.457L276.823 388.474L276.788 388.49L276.753 388.506L276.717 388.523L276.682 388.539L276.646 388.556L276.611 388.572L276.576 388.588L276.54 388.605L276.505 388.621L276.47 388.638L276.434 388.654L276.399 388.671L276.363 388.687L276.328 388.704L276.293 388.72L276.257 388.736L276.222 388.753L276.187 388.769L276.151 388.786L276.116 388.802L276.08 388.819L276.045 388.835L276.009 388.852L275.974 388.868L275.939 388.884L275.903 388.901L275.868 388.917L275.832 388.934L275.797 388.95L275.762 388.967L275.726 388.983L275.691 389L275.655 389.016L275.62 389.033L275.584 389.049L275.549 389.065L275.513 389.082L275.478 389.098L275.443 389.115L275.407 389.131L275.372 389.148L275.336 389.164L275.301 389.181L275.265 389.197L275.23 389.214L275.194 389.23L275.181 389.236C275.072 388.812 274.955 388.394 274.84 387.979C274.408 386.429 273.991 384.931 274.022 383.342L274.022 383.342C274.045 382.14 275.181 381.348 276.489 381.633C276.808 381.702 277.123 381.787 277.442 381.872C277.48 381.882 277.518 381.892 277.556 381.902C277.913 381.998 278.274 382.092 278.641 382.162L278.641 382.162C280.104 382.441 281.377 382.338 282.472 381.829C283.567 381.321 284.469 380.414 285.204 379.114C285.453 378.675 285.669 378.215 285.882 377.762C285.953 377.611 286.023 377.462 286.094 377.314C286.461 376.551 287.029 376.094 287.628 375.971C288.223 375.848 288.878 376.048 289.439 376.657ZM271.307 399.247L271.307 399.247C271.284 399.152 271.308 399.021 271.375 398.86C271.44 398.703 271.534 398.542 271.623 398.397C271.642 398.366 271.69 398.331 271.794 398.289C271.833 398.274 271.873 398.259 271.917 398.244C271.928 398.24 271.939 398.236 271.95 398.232C272.005 398.213 272.064 398.191 272.12 398.165L272.149 398.152L272.178 398.138L272.207 398.125L272.235 398.111L272.264 398.098L272.293 398.085L272.322 398.071L272.351 398.058L272.38 398.044L272.409 398.031L272.438 398.017L272.467 398.004L272.496 397.99L272.525 397.977L272.554 397.964L272.583 397.95L272.612 397.937L272.641 397.923L272.67 397.91L272.699 397.896L272.728 397.883L272.757 397.869L272.786 397.856L272.815 397.843L272.843 397.829L272.872 397.816L272.901 397.802L272.93 397.789L272.959 397.775L272.988 397.762L273.017 397.748L273.046 397.735L273.075 397.721L273.104 397.708L273.133 397.695L273.162 397.681L273.191 397.668L273.22 397.654L273.249 397.641L273.278 397.627L273.307 397.614L273.336 397.6L273.365 397.587L273.394 397.574L273.423 397.56L273.452 397.547L273.48 397.533L273.509 397.52L273.538 397.506L273.567 397.493L273.596 397.479L273.625 397.466L273.654 397.453L273.683 397.439L273.712 397.426L273.741 397.412L273.77 397.399L273.799 397.385L273.828 397.372L273.857 397.358L273.886 397.345L273.915 397.331L273.944 397.318L273.973 397.305L274.002 397.291L274.031 397.278L274.06 397.264L274.089 397.251L274.117 397.237L274.146 397.224L274.175 397.21L274.204 397.197L274.233 397.184L274.262 397.17L274.291 397.157L274.32 397.143L274.349 397.13L274.378 397.116L274.407 397.103L274.436 397.089L274.465 397.076L274.494 397.062L274.523 397.049L274.552 397.036L274.581 397.022L274.61 397.009L274.639 396.995L274.668 396.982L274.697 396.968L274.726 396.955L274.755 396.941L274.783 396.928L274.812 396.915L274.841 396.901L274.87 396.888L274.899 396.874L274.928 396.861L274.957 396.847L274.986 396.834L275.015 396.82L275.044 396.807L275.073 396.793L275.102 396.78L275.131 396.767L275.16 396.753L275.189 396.74L275.218 396.726L275.247 396.713L275.276 396.699L275.305 396.686L275.334 396.672L275.363 396.659L275.392 396.646L275.42 396.632L275.449 396.619L275.478 396.605L275.507 396.592L275.536 396.578L275.565 396.565L275.594 396.551L275.623 396.538L275.652 396.524L275.681 396.511L275.71 396.498L275.739 396.484L275.768 396.471L275.797 396.457L275.826 396.444L275.855 396.43L275.884 396.417L275.913 396.403L275.942 396.39L275.971 396.377L276 396.363L276.029 396.35L276.058 396.336L276.086 396.323L276.115 396.309L276.144 396.296L276.173 396.282L276.202 396.269L276.231 396.255L276.26 396.242L276.289 396.229L276.318 396.215L276.347 396.202L276.376 396.188L276.405 396.175L276.434 396.161L276.463 396.148L276.492 396.134L276.521 396.121L276.55 396.108L276.579 396.094L276.608 396.081L276.637 396.067L276.666 396.054L276.695 396.04L276.724 396.027L276.752 396.013L276.781 396L276.81 395.986L276.839 395.973L276.868 395.96L276.897 395.946L276.926 395.933L276.955 395.919L276.984 395.906L277.013 395.892L277.042 395.879L277.071 395.865L277.1 395.852L277.129 395.839L277.158 395.825L277.187 395.812L277.216 395.798L277.245 395.785L277.274 395.771L277.303 395.758L277.332 395.744L277.361 395.731L277.39 395.717L277.418 395.704L277.447 395.691L277.476 395.677L277.505 395.664L277.534 395.65L277.563 395.637L277.592 395.623L277.621 395.61L277.65 395.596L277.679 395.583L277.708 395.57L277.737 395.556L277.766 395.543L277.795 395.529L277.824 395.516L277.853 395.502L277.882 395.489L277.911 395.475L277.94 395.462L277.969 395.448L277.998 395.435L278.027 395.422L278.056 395.408L278.085 395.395L278.113 395.381L278.142 395.368L278.171 395.354L278.2 395.341L278.229 395.327L278.258 395.314L278.287 395.301L278.316 395.287L278.345 395.274L278.374 395.26L278.403 395.247L278.432 395.233L278.461 395.22L278.49 395.206L278.519 395.193L278.548 395.179L278.577 395.166L278.606 395.153L278.635 395.139L278.664 395.126L278.693 395.112L278.722 395.099L278.751 395.085L278.779 395.072L278.808 395.058L278.837 395.045L278.866 395.032L278.895 395.018L278.924 395.005L278.953 394.991L278.982 394.978L279.011 394.964L279.04 394.951L279.069 394.937L279.098 394.924L279.127 394.91L279.156 394.897L279.185 394.884L279.214 394.87L279.243 394.857L279.272 394.843L279.301 394.83L279.33 394.816L279.359 394.803L279.388 394.789L279.417 394.776L279.445 394.763L279.474 394.749L279.503 394.736L279.532 394.722L279.561 394.709L279.59 394.695L279.619 394.682L279.648 394.668L279.677 394.655L279.706 394.641L279.735 394.628L279.764 394.615L279.793 394.601L279.822 394.588L279.851 394.574L279.88 394.561L279.909 394.547L279.938 394.534L279.967 394.52L279.996 394.507L280.025 394.494L280.054 394.48L280.083 394.467L280.112 394.453L280.14 394.44L280.169 394.426L280.198 394.413L280.227 394.399L280.256 394.386L280.285 394.372L280.314 394.359L280.343 394.346L280.372 394.332L280.401 394.319L280.43 394.305L280.459 394.292L280.488 394.278L280.517 394.265L280.546 394.251L280.575 394.238L280.604 394.225L280.633 394.211L280.662 394.198L280.691 394.184L280.72 394.171L280.749 394.157L280.778 394.144L280.806 394.13L280.835 394.117L280.864 394.103L280.893 394.09L280.922 394.077L280.951 394.063L280.98 394.05L281.009 394.036L281.038 394.023L281.067 394.009L281.096 393.996L281.125 393.982L281.154 393.969L281.183 393.956L281.212 393.942L281.241 393.929L281.27 393.915L281.299 393.902L281.328 393.888L281.357 393.875L281.386 393.861L281.415 393.848L281.444 393.834L281.472 393.821L281.501 393.808L281.53 393.794L281.559 393.781L281.588 393.767L281.617 393.754L281.646 393.74L281.675 393.727L281.704 393.713L281.733 393.7L281.762 393.687L281.791 393.673L281.82 393.66L281.849 393.646L281.878 393.633L281.907 393.619L281.936 393.606L281.965 393.592L281.994 393.579L282.023 393.565L282.052 393.552L282.081 393.539L282.11 393.525L282.139 393.512L282.167 393.498L282.196 393.485L282.225 393.471L282.254 393.458L282.283 393.444L282.312 393.431L282.341 393.418L282.37 393.404L282.399 393.391L282.428 393.377L282.457 393.364L282.486 393.35L282.515 393.337L282.544 393.323L282.573 393.31L282.602 393.296L282.631 393.283L282.66 393.27L282.689 393.256L282.718 393.243L282.747 393.229L282.776 393.216L282.805 393.202L282.833 393.189L282.862 393.175L282.891 393.162L282.92 393.149L282.949 393.135L282.978 393.122L283.007 393.108L283.036 393.095L283.065 393.081L283.094 393.068L283.123 393.054L283.152 393.041L283.181 393.027L283.21 393.014L283.239 393.001L283.268 392.987L283.297 392.974L283.326 392.96L283.355 392.947L283.384 392.933L283.413 392.92L283.442 392.906L283.471 392.893L283.499 392.88L283.528 392.866L283.557 392.853L283.586 392.839L283.615 392.826L283.644 392.812L283.673 392.799L283.702 392.785L283.731 392.772L283.76 392.758L283.789 392.745L283.818 392.732L283.847 392.718L283.876 392.705L283.905 392.691L283.934 392.678L283.963 392.664L283.992 392.651L284.021 392.637L284.05 392.624L284.079 392.611L284.108 392.597L284.136 392.584L284.165 392.57L284.194 392.557L284.223 392.543L284.252 392.53L284.281 392.516L284.31 392.503L284.339 392.489L284.368 392.476L284.397 392.463L284.426 392.449L284.455 392.436L284.484 392.422L284.513 392.409L284.542 392.395L284.571 392.382L284.6 392.368L284.629 392.355L284.658 392.342L284.687 392.328L284.716 392.315L284.745 392.301L284.774 392.288L284.802 392.274L284.831 392.261L284.86 392.247L284.889 392.234L284.918 392.22L284.947 392.207L284.976 392.194L285.005 392.18L285.034 392.167L285.063 392.153L285.092 392.14L285.121 392.126L285.15 392.113L285.179 392.099L285.208 392.086L285.237 392.073L285.266 392.059L285.295 392.046L285.324 392.032L285.353 392.019L285.382 392.005L285.411 391.992L285.439 391.978L285.468 391.965L285.497 391.951L285.526 391.938L285.555 391.925L285.584 391.911L285.613 391.898L285.642 391.884L285.671 391.871L285.7 391.857L285.729 391.844L285.758 391.83L285.787 391.817L285.816 391.804L285.845 391.79L285.874 391.777L285.903 391.763L285.932 391.75L285.961 391.736L285.99 391.723L286.019 391.709L286.048 391.696L286.076 391.683L286.105 391.669L286.134 391.656L286.163 391.642L286.192 391.629L286.221 391.615L286.25 391.602L286.279 391.588L286.308 391.575L286.337 391.561L286.366 391.548L286.395 391.535L286.424 391.521L286.453 391.508L286.482 391.494L286.511 391.481L286.54 391.467L286.569 391.454L286.598 391.44L286.627 391.427L286.656 391.414L286.685 391.4L286.713 391.387L286.742 391.373L286.771 391.36L286.8 391.346L286.829 391.333L286.858 391.319L286.887 391.306L286.916 391.293L286.945 391.279C288.176 390.707 289.407 390.135 290.638 389.564C294.327 387.85 298.016 386.136 301.706 384.424L301.706 384.424C301.765 384.397 301.825 384.364 301.88 384.334L301.888 384.329C301.942 384.3 301.992 384.273 302.041 384.249C302.149 384.196 302.223 384.178 302.274 384.186L302.274 384.186C302.41 384.207 302.572 384.25 302.708 384.311C302.852 384.375 302.938 384.446 302.967 384.506C302.997 384.569 303 384.68 302.962 384.833C302.927 384.979 302.862 385.134 302.798 385.263C302.784 385.292 302.74 385.329 302.64 385.376C302.593 385.398 302.543 385.418 302.488 385.439L302.484 385.441C302.432 385.461 302.376 385.483 302.324 385.507C292.376 390.13 282.429 394.75 272.48 399.371C272.441 399.389 272.404 399.407 272.369 399.424C272.277 399.469 272.194 399.509 272.104 399.539L272.103 399.54C271.902 399.608 271.716 399.612 271.578 399.563C271.446 399.516 271.347 399.418 271.307 399.247ZM271.161 399.282C271.264 399.722 271.704 399.834 272.151 399.682L271.161 399.282ZM303.102 384.441C302.995 384.221 302.591 384.083 302.297 384.038L302.932 385.331C303.067 385.06 303.21 384.664 303.102 384.441ZM294.964 384.031L294.964 384.031C295.038 384.139 295.099 384.249 295.171 384.38C295.185 384.406 295.2 384.433 295.215 384.461L295.212 384.462L295.174 384.48L295.137 384.497L295.099 384.515L295.062 384.532L295.024 384.55L294.986 384.567L294.949 384.585L294.911 384.602L294.873 384.619L294.836 384.637L294.798 384.654L294.761 384.672L294.723 384.689L294.685 384.707L294.648 384.724L294.61 384.742L294.572 384.759L294.535 384.777L294.497 384.794L294.46 384.812L294.422 384.829L294.384 384.847L294.347 384.864L294.309 384.882L294.271 384.899L294.234 384.917L294.196 384.934L294.159 384.952L294.121 384.969L294.083 384.986L294.046 385.004L294.008 385.021L293.971 385.039L293.933 385.056L293.895 385.074L293.858 385.091L293.82 385.109L293.783 385.126L293.745 385.144L293.707 385.161L293.67 385.179L293.632 385.196L293.595 385.214L293.557 385.231L293.519 385.248L293.482 385.266L293.444 385.283L293.407 385.301L293.369 385.318L293.331 385.336L293.294 385.353L293.256 385.371L293.219 385.388L293.181 385.406L293.143 385.423L293.106 385.441L293.068 385.458L293.031 385.475L292.993 385.493L292.955 385.51L292.918 385.528L292.88 385.545L292.843 385.563L292.805 385.58L292.768 385.598L292.73 385.615L292.692 385.633L292.655 385.65L292.617 385.667L292.58 385.685L292.542 385.702L292.505 385.72L292.467 385.737L292.429 385.755L292.392 385.772L292.354 385.79L292.317 385.807L292.279 385.825L292.242 385.842L292.204 385.859L292.166 385.877L292.129 385.894L292.091 385.912L292.054 385.929L292.016 385.947L291.979 385.964L291.941 385.982L291.903 385.999L291.866 386.016L291.828 386.034L291.791 386.051L291.753 386.069L291.716 386.086L291.678 386.104L291.64 386.121L291.603 386.139L291.565 386.156L291.528 386.173L291.49 386.191L291.453 386.208L291.415 386.226L291.378 386.243L291.34 386.261L291.302 386.278L291.265 386.296L291.227 386.313L291.19 386.33L291.152 386.348L291.115 386.365L291.077 386.383L291.04 386.4L291.002 386.418L290.964 386.435L290.927 386.453L290.889 386.47L290.852 386.487L290.814 386.505L290.777 386.522L290.739 386.54L290.702 386.557L290.664 386.575L290.626 386.592L290.589 386.61L290.551 386.627L290.514 386.644L290.476 386.662L290.439 386.679L290.401 386.697L290.364 386.714L290.326 386.732L290.289 386.749L290.251 386.767L290.213 386.784L290.176 386.801L290.138 386.819L290.101 386.836L290.063 386.854L290.026 386.871L289.988 386.889L289.951 386.906L289.913 386.923L289.876 386.941L289.838 386.958L289.8 386.976L289.763 386.993L289.725 387.011L289.688 387.028L289.65 387.046L289.613 387.063L289.575 387.08L289.538 387.098L289.5 387.115L289.463 387.133L289.425 387.15L289.387 387.168L289.35 387.185L289.312 387.202L289.275 387.22L289.237 387.237L289.2 387.255L289.162 387.272L289.125 387.29L289.087 387.307L289.05 387.325L289.012 387.342L288.975 387.359L288.937 387.377L288.899 387.394L288.862 387.412L288.824 387.429L288.787 387.447L288.749 387.464L288.712 387.481L288.674 387.499L288.637 387.516L288.599 387.534L288.562 387.551L288.524 387.569L288.487 387.586L288.449 387.604L288.411 387.621L288.374 387.638L288.336 387.656L288.299 387.673L288.261 387.691L288.224 387.708L288.186 387.726L288.149 387.743L288.111 387.76L288.074 387.778L288.036 387.795L287.999 387.813L287.961 387.83L287.923 387.848L287.886 387.865L287.848 387.883L287.811 387.9L287.773 387.917L287.736 387.935L287.698 387.952L287.661 387.97L287.623 387.987L287.586 388.005L287.548 388.022L287.511 388.039L287.473 388.057L287.435 388.074L287.398 388.092L287.36 388.109L287.323 388.127L287.285 388.144L287.248 388.162L287.21 388.179L287.173 388.196L287.135 388.214L287.098 388.231L287.06 388.249L287.022 388.266L286.985 388.284L286.947 388.301L286.91 388.318L286.872 388.336L286.835 388.353L286.797 388.371L286.76 388.388L286.722 388.406L286.685 388.423L286.647 388.441L286.609 388.458L286.572 388.475L286.534 388.493L286.497 388.51L286.459 388.528L286.422 388.545L286.384 388.563L286.347 388.58L286.309 388.597L286.272 388.615L286.234 388.632L286.196 388.65L286.159 388.667L286.121 388.685L286.084 388.702L286.046 388.72L286.009 388.737L285.971 388.754L285.934 388.772L285.896 388.789L285.859 388.807L285.821 388.824L285.783 388.842L285.746 388.859L285.708 388.877L285.671 388.894L285.633 388.911L285.596 388.929L285.558 388.946L285.521 388.964L285.483 388.981L285.445 388.999L285.408 389.016L285.37 389.034L285.333 389.051L285.295 389.068L285.258 389.086L285.22 389.103L285.182 389.121L285.145 389.138L285.107 389.156L285.07 389.173L285.032 389.191L284.995 389.208L284.957 389.225L284.92 389.243L284.882 389.26L284.844 389.278L284.807 389.295L284.769 389.313L284.732 389.33L284.694 389.348L284.657 389.365L284.619 389.383L284.581 389.4L284.544 389.417L284.506 389.435L284.469 389.452L284.431 389.47L284.394 389.487L284.356 389.505L284.318 389.522L284.281 389.54L284.243 389.557L284.206 389.575L284.168 389.592L284.131 389.609L284.093 389.627L284.055 389.644L284.018 389.662L283.98 389.679L283.943 389.697L283.905 389.714L283.867 389.732L283.83 389.749L283.792 389.767L283.755 389.784L283.717 389.801L283.68 389.819L283.642 389.836L283.604 389.854L283.567 389.871L283.529 389.889L283.492 389.906L283.454 389.924L283.416 389.941L283.379 389.959L283.341 389.976L283.304 389.994L283.266 390.011L283.228 390.028L283.191 390.046L283.153 390.063L283.116 390.081L283.078 390.098L283.04 390.116L283.003 390.133L282.965 390.151L282.928 390.168L282.89 390.186L282.852 390.203L282.815 390.221L282.777 390.238L282.74 390.256L282.702 390.273L282.664 390.29L282.627 390.308L282.589 390.325L282.551 390.343L282.514 390.36L282.476 390.378L282.439 390.395L282.401 390.413L282.363 390.43L282.326 390.448L282.288 390.465L282.251 390.483L282.213 390.5L282.175 390.518L282.138 390.535L282.1 390.553L282.062 390.57L282.025 390.588L281.987 390.605L281.95 390.622L281.912 390.64L281.874 390.657L281.837 390.675L281.799 390.692L281.761 390.71L281.724 390.727L281.686 390.745L281.648 390.762L281.611 390.78L281.573 390.797L281.536 390.815L281.498 390.832L281.46 390.85L281.423 390.867L281.385 390.885L281.347 390.902L281.31 390.92L281.272 390.937L281.234 390.955L281.197 390.972L281.159 390.99L281.121 391.007L281.084 391.025L281.046 391.042L281.008 391.06L280.971 391.077L280.933 391.095L280.895 391.112L280.858 391.13L280.82 391.147L280.782 391.165L280.745 391.182L280.707 391.2L280.669 391.217L280.632 391.235L280.594 391.252L280.556 391.27L280.519 391.287L280.481 391.305L280.443 391.322L280.406 391.34L280.368 391.357L280.33 391.375L280.293 391.392L280.255 391.41L280.217 391.427L280.18 391.445L280.142 391.462L280.104 391.48L280.066 391.497L280.029 391.515L279.991 391.532L279.953 391.55L279.916 391.567L279.878 391.585L279.84 391.602L279.803 391.62L279.765 391.637L279.727 391.655L279.689 391.672L279.652 391.69L279.614 391.707L279.576 391.725L279.539 391.742L279.501 391.76L279.463 391.777L279.425 391.795L279.388 391.812L279.35 391.83L279.312 391.847L279.275 391.865L279.237 391.882L279.199 391.9L279.161 391.917L279.124 391.935L279.086 391.953L279.048 391.97L279.011 391.988L278.973 392.005L278.935 392.023L278.897 392.04L278.86 392.058L278.822 392.075L278.784 392.093L278.746 392.11L278.709 392.128L278.671 392.145L278.633 392.163L278.595 392.18L278.558 392.198L278.52 392.216L278.482 392.233L278.444 392.251L278.407 392.268L278.369 392.286L278.331 392.303L278.293 392.321L278.255 392.338L278.218 392.356L278.18 392.373L278.142 392.391L278.104 392.408L278.067 392.426L278.029 392.444L277.991 392.461L277.953 392.479L277.916 392.496L277.878 392.514L277.84 392.531L277.802 392.549L277.764 392.566L277.727 392.584L277.689 392.602L277.651 392.619L277.613 392.637L277.575 392.654L277.538 392.672L277.5 392.689L277.462 392.707L277.424 392.724L277.386 392.742L277.349 392.76L277.311 392.777L277.273 392.795L277.235 392.812L277.197 392.83L277.16 392.847L277.122 392.865L277.084 392.882L277.046 392.9L277.008 392.918L276.97 392.935L276.933 392.953L276.895 392.97L276.857 392.988L276.819 393.005L276.781 393.023L276.743 393.041L276.706 393.058L276.668 393.076L276.63 393.093L276.592 393.111L276.554 393.129L276.516 393.146L276.478 393.164L276.441 393.181L276.403 393.199L276.365 393.216L276.327 393.234L276.289 393.252L276.257 393.267C276.231 393.183 276.204 393.1 276.177 393.018C276.145 392.918 276.114 392.822 276.086 392.731C276.018 392.507 275.965 392.294 275.947 392.083C275.947 392.083 275.947 392.081 275.947 392.079C275.948 392.076 275.948 392.071 275.95 392.066C275.953 392.054 275.959 392.039 275.969 392.02C275.99 391.982 276.022 391.938 276.064 391.892C276.15 391.799 276.259 391.717 276.343 391.677L276.343 391.677C278.436 390.685 280.535 389.71 282.635 388.734C283.102 388.517 283.569 388.3 284.035 388.083C286.148 387.101 288.263 386.119 290.377 385.137C291.434 384.647 292.491 384.156 293.547 383.665C293.8 383.548 293.978 383.465 294.119 383.417C294.259 383.369 294.338 383.364 294.395 383.379C294.452 383.394 294.516 383.434 294.609 383.542C294.703 383.651 294.811 383.808 294.964 384.031Z" fill="white" stroke="white" stroke-width="0.3"/>
<path d="M291.352 400.395L291.351 400.396C290.995 400.55 290.739 400.662 290.555 400.766C290.372 400.87 290.286 400.953 290.245 401.04C290.204 401.125 290.195 401.242 290.232 401.443C290.269 401.646 290.347 401.907 290.457 402.271C291.344 405.204 289.984 408.2 287.198 409.444C284.496 410.651 281.236 409.611 279.727 407.06C278.214 404.501 278.846 401.215 281.207 399.356L291.352 400.395ZM291.352 400.395C291.405 400.372 291.459 400.35 291.516 400.328C291.526 400.324 291.535 400.32 291.545 400.316C291.612 400.29 291.682 400.261 291.752 400.228L291.687 400.093L291.751 400.229C291.998 400.112 292.151 400.095 292.266 400.138C292.384 400.182 292.507 400.304 292.647 400.582M291.352 400.395L287.748 398.914M287.748 398.914L287.748 398.914C287.94 399.023 288.077 399.057 288.205 399.049C288.337 399.041 288.478 398.986 288.677 398.874L288.677 398.874C289.568 398.371 290.506 397.936 291.467 397.584L291.467 397.584C291.694 397.502 291.835 397.424 291.931 397.322C292.026 397.223 292.092 397.085 292.135 396.854C292.634 394.217 294.727 392.322 297.361 392.058C299.923 391.801 302.364 393.27 303.398 395.685L303.398 395.685C304.636 398.575 303.278 401.993 300.373 403.325C297.484 404.649 294.1 403.473 292.647 400.582M287.748 398.914C285.597 397.699 283.074 397.886 281.207 399.356L287.748 398.914ZM292.647 400.582L292.781 400.514L292.647 400.582C292.647 400.582 292.647 400.582 292.647 400.582ZM288.751 399.004C289.635 398.506 290.565 398.074 291.518 397.725L287.674 399.045C288.088 399.279 288.342 399.235 288.751 399.004ZM299.286 400.9L299.286 400.9C297.632 401.659 295.728 400.955 294.976 399.308C294.217 397.65 294.913 395.767 296.569 394.998C298.22 394.231 300.104 394.927 300.872 396.59C301.639 398.251 300.943 400.141 299.286 400.9ZM286.204 406.978L286.204 406.978C284.573 407.758 282.665 407.066 281.89 405.41C281.112 403.748 281.791 401.867 283.445 401.094C285.095 400.323 287.008 401.014 287.767 402.651C288.536 404.309 287.858 406.187 286.204 406.978Z" fill="white" stroke="white" stroke-width="0.3"/>
<path d="M373.975 145.221L368.959 147.194L367.558 143.63L382.342 137.816L384.662 143.716C385.107 144.846 385.29 145.927 385.211 146.959C385.141 147.995 384.813 148.901 384.228 149.678C383.652 150.46 382.877 151.042 381.902 151.426C380.46 151.992 379.102 151.928 377.828 151.233C376.564 150.543 375.578 149.297 374.87 147.496L373.975 145.221ZM376.727 144.139L377.646 146.475C377.917 147.165 378.296 147.622 378.782 147.845C379.271 148.075 379.831 148.066 380.46 147.819C381.151 147.547 381.629 147.144 381.896 146.609C382.162 146.075 382.172 145.484 381.926 144.839L380.992 142.462L376.727 144.139Z" fill="white"/>
<path d="M376.857 167.279L372.8 156.962L375.034 156.084L381.899 158.872C383.693 159.518 384.983 159.687 385.768 159.379C386.404 159.128 386.834 158.799 387.056 158.391C387.279 157.983 387.286 157.515 387.079 156.987C386.874 156.466 386.484 156.131 385.909 155.982C385.342 155.83 384.726 155.884 384.063 156.145L382.713 152.713C383.62 152.356 384.545 152.254 385.489 152.407C386.439 152.557 387.289 152.95 388.039 153.585C388.789 154.22 389.359 155.035 389.751 156.03C390.379 157.628 390.493 159.002 390.093 160.152C389.696 161.308 388.807 162.158 387.426 162.701C386.844 162.93 386.233 163.045 385.592 163.047C384.959 163.046 384.247 162.935 383.457 162.714C382.676 162.498 381.578 162.081 380.163 161.465L377.209 160.423L379.497 166.241L376.857 167.279Z" fill="white"/>
<path d="M384.037 170.81L379.021 172.783L377.62 169.219L392.404 163.405L394.724 169.305C395.169 170.435 395.351 171.516 395.272 172.548C395.203 173.583 394.875 174.49 394.29 175.267C393.714 176.049 392.939 176.631 391.964 177.014C390.522 177.581 389.164 177.517 387.89 176.822C386.626 176.131 385.64 174.885 384.932 173.085L384.037 170.81ZM386.789 169.728L387.707 172.064C387.979 172.754 388.358 173.211 388.844 173.434C389.333 173.664 389.892 173.655 390.522 173.407C391.212 173.136 391.691 172.733 391.958 172.198C392.224 171.663 392.234 171.073 391.988 170.427L391.054 168.051L386.789 169.728Z" fill="white"/>
<path d="M379.118 304.344C379.099 304.249 379.084 304.152 379.059 304.058C378.772 303.006 378.087 302.268 377.184 301.707C376.17 301.076 375.074 300.748 373.871 300.854C372.984 300.932 372.224 301.324 371.568 301.897C370.576 302.767 369.916 303.876 369.398 305.076C369.203 305.528 369.012 305.98 368.812 306.429C368.741 306.587 368.782 306.681 368.937 306.741C369.082 306.797 369.225 306.861 369.372 306.914C369.548 306.977 369.594 307.07 369.511 307.252C369.222 307.892 368.94 308.535 368.667 309.182C368.582 309.382 368.466 309.356 368.313 309.286C367.596 308.959 366.877 308.636 366.159 308.312C366.081 308.277 366.004 308.234 365.923 308.211C365.736 308.158 365.722 308.056 365.797 307.893C366.098 307.242 366.394 306.589 366.686 305.933C367.053 305.107 367.411 304.276 367.78 303.45C368.435 301.989 369.405 300.776 370.698 299.835C372.144 298.782 373.759 298.397 375.521 298.748C376.936 299.031 378.233 299.593 379.307 300.579C380.194 301.391 380.875 302.352 381.171 303.54C381.427 304.563 381.502 305.601 381.337 306.647C381.168 307.721 380.88 308.761 380.43 309.757C379.855 311.029 379.295 312.308 378.732 313.587C378.664 313.741 378.597 313.807 378.416 313.726C377.464 313.297 376.505 312.883 375.554 312.452C375.498 312.427 375.444 312.274 375.469 312.214C375.75 311.545 376.048 310.883 376.339 310.219C376.402 310.073 376.498 310.044 376.639 310.109C376.902 310.229 377.167 310.343 377.431 310.459C377.666 310.562 377.7 310.533 377.849 310.224C377.942 310.029 377.869 309.939 377.695 309.865C376.749 309.458 375.805 309.048 374.861 308.638C374.572 308.513 374.568 308.497 374.697 308.205C374.949 307.634 375.205 307.065 375.449 306.49C375.525 306.312 375.609 306.28 375.788 306.36C376.727 306.783 377.671 307.194 378.615 307.607C378.864 307.717 378.893 307.701 378.962 307.428C378.982 307.353 379.026 307.275 379.017 307.203C379.006 307.124 378.967 307.008 378.907 306.981C378.21 306.67 377.505 306.378 376.808 306.069C376.088 305.751 375.375 305.419 374.659 305.094C374.595 305.065 374.532 305.03 374.464 305.014C374.259 304.966 374.226 304.87 374.315 304.677C374.579 304.102 374.825 303.52 375.075 302.939C375.183 302.69 375.21 302.676 375.457 302.788C376.403 303.215 377.348 303.642 378.294 304.068C378.546 304.182 378.801 304.292 379.054 304.404C379.075 304.384 379.097 304.364 379.118 304.344Z" fill="white"/>
<path d="M378.033 297.644C376.477 296.958 374.922 296.272 373.366 295.587C372.852 295.361 372.337 295.136 371.818 294.923C371.631 294.846 371.594 294.757 371.678 294.57C372.199 293.411 372.714 292.248 373.224 291.084C373.899 289.541 374.569 287.995 375.243 286.451C375.396 286.101 375.56 285.755 375.71 285.404C375.773 285.259 375.855 285.218 376.002 285.284C376.529 285.518 377.058 285.749 377.588 285.978C377.746 286.046 377.766 286.147 377.699 286.296C376.94 287.999 376.182 289.702 375.427 291.406C375.174 291.977 374.932 292.552 374.68 293.123C374.616 293.268 374.649 293.356 374.794 293.419C375.817 293.866 376.837 294.315 377.859 294.764C378.015 294.833 378.094 294.781 378.162 294.626C378.592 293.632 379.03 292.64 379.472 291.651C379.913 290.661 380.368 289.677 380.805 288.686C380.89 288.492 380.968 288.447 381.171 288.541C381.658 288.768 382.156 288.975 382.654 289.177C382.83 289.248 382.873 289.324 382.791 289.509C381.911 291.499 381.041 293.494 380.163 295.485C380.081 295.671 380.118 295.765 380.303 295.846C381.29 296.275 382.273 296.714 383.258 297.147C383.527 297.265 383.561 297.249 383.68 296.978C384.592 294.909 385.503 292.839 386.414 290.769C386.496 290.583 386.58 290.399 386.653 290.21C386.713 290.055 386.811 290.036 386.95 290.097C387.478 290.331 388.005 290.566 388.535 290.793C388.716 290.87 388.706 290.98 388.639 291.13C388.295 291.899 387.958 292.671 387.617 293.441C386.611 295.708 385.602 297.974 384.602 300.243C384.515 300.439 384.441 300.475 384.24 300.384C383.254 299.935 382.259 299.504 381.267 299.066C380.19 298.591 379.112 298.116 378.034 297.641C378.034 297.642 378.034 297.643 378.033 297.644Z" fill="white"/>
<path d="M376.641 283.305C376.952 282.599 377.278 281.965 377.51 281.3C377.688 280.788 377.997 280.594 378.51 280.5C380.048 280.217 381.576 279.879 383.107 279.561C383.316 279.518 383.525 279.47 383.768 279.417C383.591 279.105 383.443 278.834 383.285 278.568C382.448 277.165 381.605 275.765 380.775 274.358C380.718 274.262 380.703 274.095 380.746 273.994C381.08 273.205 381.434 272.423 381.783 271.64C381.791 271.621 381.815 271.609 381.853 271.575C382.011 271.83 382.167 272.075 382.317 272.323C382.714 272.984 383.109 273.645 383.503 274.307C384.384 275.785 385.266 277.263 386.145 278.743C386.217 278.864 386.297 278.917 386.45 278.885C387.791 278.607 389.134 278.34 390.475 278.065C391.359 277.883 392.241 277.692 393.125 277.507C393.619 277.404 394.114 277.304 394.61 277.204C394.638 277.198 394.669 277.209 394.73 277.215C394.713 277.282 394.706 277.339 394.684 277.39C394.35 278.155 394.018 278.921 393.672 279.68C393.631 279.767 393.514 279.856 393.418 279.877C391.582 280.262 389.744 280.637 387.906 281.015C387.816 281.033 387.728 281.06 387.577 281.1C387.712 281.336 387.83 281.549 387.954 281.758C388.832 283.237 389.709 284.717 390.593 286.194C390.688 286.354 390.681 286.489 390.608 286.654C390.283 287.38 389.97 288.111 389.648 288.839C389.626 288.89 389.573 288.927 389.534 288.97C389.486 288.923 389.426 288.883 389.392 288.828C388.749 287.751 388.113 286.671 387.471 285.594C386.741 284.371 386.006 283.151 385.275 281.929C385.076 281.596 385.08 281.602 384.701 281.679C383.381 281.947 382.059 282.206 380.74 282.475C379.848 282.656 378.959 282.849 378.067 283.032C377.613 283.126 377.157 283.207 376.641 283.305Z" fill="white"/>
<path d="M148.925 376.233L148.925 376.233C148.973 376.265 149.019 376.293 149.063 376.317C149.27 376.431 149.405 376.441 149.51 376.424C149.63 376.404 149.773 376.338 149.976 376.193C149.976 376.193 149.976 376.193 149.976 376.192L150.267 376.599C153.01 374.633 156.565 374.434 159.545 376.081L148.925 376.233ZM148.925 376.233L148.922 376.231M148.925 376.233L148.922 376.231M148.922 376.231C148.738 376.109 148.549 375.994 148.356 375.887M148.922 376.231L148.356 375.887M134.159 399.757L134.159 399.757C133.205 397.292 133.153 394.572 134.014 392.1C134.129 391.772 134.121 391.587 134.084 391.477C134.05 391.376 133.962 391.251 133.706 391.11C133.669 391.089 133.625 391.067 133.571 391.041C133.378 390.95 133.188 390.852 133.006 390.752C130.788 389.527 129.438 387.664 129.031 385.238C128.547 382.358 129.419 379.92 131.612 378.056L134.159 399.757ZM134.159 399.757C135.113 402.219 136.906 404.277 139.212 405.553L139.212 405.553M134.159 399.757L139.212 405.553M139.212 405.553L139.218 405.556C144.018 408.208 149.988 407.041 153.412 402.779L153.413 402.779M139.212 405.553L153.413 402.779M153.413 402.779C153.616 402.526 153.762 402.447 153.871 402.423C153.982 402.399 154.156 402.411 154.463 402.558C158.478 404.483 163.17 403.242 165.865 399.575C167.056 397.955 167.637 395.907 167.514 393.81C167.391 391.71 166.569 389.716 165.194 388.198L165.193 388.197M153.413 402.779L165.193 388.197M165.193 388.197C165.04 388.029 164.847 387.875 164.683 387.744L164.659 387.726L164.658 387.725M165.193 388.197L164.658 387.725M164.658 387.725C164.263 387.412 164.035 387.209 163.962 386.95L163.962 386.949M164.658 387.725L163.962 386.949M163.962 386.949C163.883 386.665 163.972 386.347 164.132 385.859L163.962 386.949ZM148.356 375.887C145.702 374.421 142.511 374.654 140.038 376.484M148.356 375.887L140.038 376.484M140.038 376.484C139.875 376.604 139.748 376.655 139.634 376.672C139.518 376.69 139.373 376.679 139.163 376.612C136.37 375.703 133.807 376.188 131.612 378.056L140.038 376.484ZM136.361 398.07L136.361 398.07C135.724 395.846 135.997 393.501 137.13 391.463C139.433 387.322 144.693 385.821 148.853 388.12L148.863 388.125C150.884 389.244 152.344 391.082 152.978 393.302L153.459 393.165L152.978 393.302C153.617 395.542 153.343 397.902 152.2 399.954C149.905 404.074 144.664 405.569 140.519 403.279L140.516 403.277C138.471 402.144 136.997 400.297 136.361 398.07ZM160.582 387.644L160.533 387.909L160.728 388.095C160.784 388.15 160.856 388.199 160.94 388.245C160.951 388.251 160.978 388.266 161.01 388.281C161.111 388.332 161.212 388.387 161.314 388.443C162.324 389.001 163.09 389.67 163.673 390.487C165.346 392.832 165.279 396.122 163.539 398.293C161.643 400.656 158.55 401.466 155.839 400.332L155.838 400.331C155.632 400.246 155.494 400.186 155.392 400.13C155.278 400.067 155.234 400.017 155.217 399.992C155.203 399.972 155.194 399.951 155.192 399.911C155.19 399.862 155.197 399.79 155.226 399.678C155.255 399.565 155.298 399.441 155.353 399.284L155.353 399.284C156.207 396.816 156.149 394.101 155.191 391.638C154.233 389.173 152.434 387.115 150.125 385.837L150.125 385.837C147.803 384.554 145.096 384.127 142.5 384.633L142.5 384.633C139.901 385.14 137.568 386.556 135.929 388.619L135.929 388.62C135.832 388.741 135.718 388.878 135.574 388.955C135.467 389.012 135.328 389.05 135.096 388.922C135.042 388.892 134.982 388.853 134.913 388.801C134.658 388.606 134.391 388.431 134.126 388.257L134.124 388.256C134.124 388.256 134.124 388.256 134.124 388.256C133.605 387.915 133.135 387.602 132.766 387.193L132.765 387.193C131.155 385.411 131.091 382.632 132.632 380.735C134.209 378.794 136.833 378.25 139.023 379.403L139.024 379.403L139.043 379.413C139.219 379.505 139.393 379.597 139.537 379.663C139.612 379.697 139.692 379.731 139.77 379.755C139.83 379.774 139.963 379.813 140.11 379.791C140.259 379.768 140.374 379.691 140.426 379.655C140.493 379.608 140.56 379.551 140.622 379.496C140.745 379.385 140.889 379.238 141.034 379.091C142.662 377.445 145.096 377.09 147.101 378.198C147.545 378.443 147.956 378.755 148.323 379.126C148.55 379.356 148.771 379.593 149.009 379.849L149.011 379.852L149.047 379.891L149.087 379.933L149.426 380.294L149.79 379.958C149.798 379.951 149.804 379.945 149.81 379.938L149.812 379.937L149.815 379.933L149.825 379.922C149.825 379.922 149.826 379.922 149.826 379.922C150.016 379.716 150.199 379.519 150.379 379.319C152.462 377.008 155.784 376.438 158.458 377.916L158.514 377.947C161.186 379.456 162.425 382.585 161.517 385.567C161.335 386.163 161.042 386.722 160.707 387.329C160.646 387.439 160.601 387.544 160.582 387.644ZM149.075 379.262C149.074 379.263 149.074 379.263 149.073 379.263L149.073 379.264C149.073 379.264 149.073 379.263 149.075 379.262Z" fill="white" stroke="white"/>
<path d="M146.971 396.615C147 396.721 147.094 396.776 147.158 396.852C147.54 397.307 147.677 397.817 147.457 398.38C147.023 399.49 146.198 400.146 144.944 399.852C144.568 399.764 144.204 399.64 143.86 399.47C143.691 399.387 143.61 399.406 143.524 399.576C143.35 399.919 143.15 400.249 142.973 400.59C142.9 400.729 142.826 400.754 142.696 400.666C142.493 400.529 142.162 400.486 142.091 400.277C142.022 400.077 142.276 399.862 142.381 399.651C142.476 399.459 142.588 399.277 142.688 399.088C142.718 399.032 142.789 398.955 142.715 398.907C142.537 398.791 142.35 398.688 142.157 398.6C142.079 398.564 142.053 398.669 142.021 398.724C141.834 399.059 141.643 399.394 141.465 399.735C141.391 399.877 141.322 399.924 141.171 399.827C141.007 399.719 140.832 399.628 140.656 399.541C140.536 399.482 140.52 399.417 140.587 399.3C140.787 398.952 140.971 398.595 141.174 398.249C141.258 398.105 141.243 398.032 141.091 397.953C140.661 397.724 140.245 397.468 139.811 397.247C139.601 397.141 139.607 397.053 139.748 396.9C139.87 396.77 139.972 396.62 140.084 396.481C140.317 396.194 140.318 396.196 140.648 396.379C141.215 396.692 141.262 396.678 141.572 396.116C142.171 395.032 142.771 393.947 143.37 392.862C143.607 392.434 143.547 392.219 143.126 391.985C142.582 391.682 142.582 391.682 142.885 391.135C142.905 391.097 142.932 391.063 142.946 391.022C143.021 390.811 143.128 390.783 143.327 390.905C143.737 391.153 144.167 391.365 144.579 391.608C144.751 391.71 144.824 391.672 144.908 391.507C145.077 391.171 145.276 390.851 145.447 390.516C145.526 390.36 145.603 390.349 145.741 390.437C145.898 390.538 146.064 390.63 146.234 390.709C146.383 390.778 146.384 390.855 146.308 390.985C146.119 391.309 145.949 391.646 145.757 391.97C145.668 392.12 145.704 392.186 145.848 392.263C146.321 392.517 146.318 392.521 146.583 392.041C146.715 391.802 146.852 391.565 146.978 391.322C147.039 391.203 147.104 391.181 147.217 391.254C147.432 391.391 147.772 391.444 147.849 391.652C147.922 391.853 147.656 392.08 147.547 392.301C147.464 392.47 147.376 392.636 147.273 392.793C147.17 392.952 147.174 393.05 147.352 393.161C147.643 393.342 147.889 393.58 148.11 393.843C148.521 394.331 148.679 394.873 148.438 395.485C148.185 396.129 147.762 396.569 147.02 396.597C147.004 396.597 146.989 396.607 146.971 396.615ZM143.211 396.608C143.209 396.607 143.207 396.605 143.205 396.604C143.064 396.858 142.929 397.116 142.781 397.365C142.709 397.488 142.722 397.552 142.851 397.625C143.187 397.815 143.531 397.985 143.886 398.132C144.186 398.255 144.498 398.352 144.831 398.337C145.27 398.317 145.603 398.037 145.669 397.613C145.719 397.303 145.597 397.041 145.397 396.816C144.969 396.332 144.405 396.041 143.848 395.742C143.726 395.676 143.681 395.757 143.634 395.845C143.494 396.1 143.352 396.354 143.211 396.608ZM144.661 393.984C144.533 394.216 144.405 394.447 144.277 394.679C144.235 394.756 144.188 394.834 144.299 394.895C144.792 395.168 145.279 395.456 145.861 395.486C146.185 395.502 146.442 395.375 146.61 395.088C146.782 394.793 146.762 394.5 146.58 394.219C146.511 394.113 146.424 394.017 146.334 393.928C146.02 393.619 145.629 393.425 145.245 393.22C145.142 393.164 145.092 393.199 145.044 393.289C144.919 393.523 144.788 393.754 144.661 393.984Z" fill="white"/>
<path d="M62.3863 62.3862C102.332 22.441 156.509 6.7365e-07 213 0V97.98C182.495 97.98 153.239 110.098 131.669 131.669L62.3863 62.3862Z" fill="#C4CDFF"/>
<path d="M53.9644 317.207L52.4415 313.91L72.5953 304.6C72.8769 304.47 72.9997 304.137 72.8697 303.855L70.3577 298.417C70.2276 298.136 69.8939 298.013 69.6124 298.143L49.4586 307.453L47.6688 303.579L61.8411 297.032C62.1226 296.902 62.2455 296.568 62.1154 296.287L59.6034 290.849C59.4733 290.567 59.1396 290.444 58.8581 290.574L44.6858 297.121L42.8961 293.247L54.3495 287.956C54.631 287.826 54.7539 287.492 54.6238 287.211L52.1118 281.773C51.9817 281.491 51.648 281.369 51.3665 281.499L39.9132 286.789L38.3903 283.493C38.2602 283.211 37.9265 283.088 37.645 283.218C37.3634 283.349 37.2406 283.682 37.3707 283.964L52.9448 317.678C53.0749 317.96 53.4086 318.082 53.6902 317.952C53.9717 317.822 54.0945 317.489 53.9644 317.207ZM42.4251 292.227L40.3841 287.809L51.3277 282.754L53.3686 287.172L42.4251 292.227ZM47.1978 302.559L45.1569 298.141L58.8193 291.83L60.8603 296.248L47.1978 302.559ZM51.9705 312.891L49.9296 308.473L69.5736 299.398L71.6145 303.816L51.9705 312.891Z" fill="white"/>
<path fill-rule="evenodd" clip-rule="evenodd" d="M53.6907 317.952C53.9722 317.822 54.095 317.488 53.965 317.207L52.4421 313.91L72.5959 304.6C72.8774 304.47 73.0003 304.137 72.8702 303.855L70.3583 298.417C70.2282 298.136 69.8945 298.013 69.6129 298.143L49.4591 307.453L47.6694 303.578L61.8416 297.032C62.1231 296.902 62.246 296.568 62.1159 296.286L59.604 290.849C59.4739 290.567 59.1402 290.444 58.8586 290.574L44.6864 297.121L42.8966 293.247L54.35 287.956C54.6315 287.826 54.7544 287.492 54.6243 287.21L52.1124 281.773C51.9823 281.491 51.6486 281.368 51.367 281.498L39.9137 286.789L38.3909 283.493C38.2608 283.211 37.9271 283.088 37.6455 283.218C37.364 283.348 37.2411 283.682 37.3712 283.964L52.9454 317.678C53.0755 317.959 53.4092 318.082 53.6907 317.952ZM40.3385 285.635L39.1803 283.128C38.8487 282.41 37.9983 282.097 37.2809 282.429C36.5634 282.76 36.2503 283.611 36.5818 284.328L52.156 318.043C52.4875 318.76 53.3379 319.073 54.0554 318.742C54.7726 318.41 55.0859 317.56 54.7544 316.842L53.5961 314.335L72.9606 305.39C73.678 305.058 73.9911 304.208 73.6596 303.49L71.1477 298.052C70.8161 297.335 69.9657 297.022 69.2483 297.353L49.8839 306.299L48.8234 304.003L62.2063 297.821C62.9237 297.49 63.2368 296.639 62.9053 295.922L60.3934 290.484C60.0619 289.766 59.2114 289.453 58.494 289.785L45.1111 295.967L44.0507 293.671L54.7147 288.745C55.4321 288.414 55.7452 287.563 55.4137 286.846L52.9018 281.408C52.5703 280.69 51.7198 280.378 51.0024 280.709L40.3385 285.635ZM41.5387 288.234L42.8504 291.073L52.2151 286.747L50.9035 283.908L41.5387 288.234ZM46.3115 298.565L47.6231 301.405L59.7067 295.823L58.3951 292.983L46.3115 298.565ZM51.0842 308.897L52.3958 311.737L70.461 303.391L69.1494 300.552L51.0842 308.897ZM42.4256 292.227L53.3692 287.172L51.3282 282.753L40.3847 287.809L42.4256 292.227ZM47.1984 302.559L60.8608 296.248L58.8198 291.829L45.1574 298.141L47.1984 302.559ZM51.9711 312.891L71.6151 303.816L69.5741 299.398L49.9301 308.472L51.9711 312.891Z" fill="white"/>
<g opacity="0.4" filter="url(#filter0_d)">
<circle cx="218" cy="226" r="137" stroke="#E9E9E9" stroke-width="18"/>
</g>
<path d="M268.328 59.142L268.327 59.1396C268.083 58.6034 268.341 57.9775 268.885 57.7647C269.39 57.5674 269.962 57.7992 270.187 58.2923C270.187 58.2926 270.187 58.293 270.187 58.2933L272.72 64.1034L272.721 64.1056L272.721 64.1056C273.824 66.53 276.04 68.296 278.649 68.8301C278.649 68.8301 278.649 68.8301 278.649 68.8301L286.096 70.3793C286.811 70.5279 287.511 70.069 287.66 69.3543L287.66 69.3542C287.808 68.6395 287.35 67.9396 286.635 67.7909L286.604 67.9378L286.635 67.7909L279.237 66.252L268.328 59.142ZM268.328 59.142L270.648 64.484C270.648 64.4844 270.648 64.4848 270.649 64.4851C272.309 68.1345 274.976 71.1236 278.36 73.1308C279.611 73.8725 281.084 74.515 282.62 74.9877L282.62 74.9878L292.021 77.8973L295.89 71.1946C294.803 68.1498 291.707 66.7421 290.139 66.4214L290.139 66.4213L279.638 64.2481C279.638 64.248 279.638 64.248 279.638 64.248C279.364 64.1919 279.086 64.2482 278.855 64.407L278.855 64.407C278.624 64.5658 278.472 64.8048 278.426 65.0814C278.335 65.6265 278.688 66.1395 279.229 66.2501L268.328 59.142ZM272.594 57.1986L272.594 57.2007L275.127 63.0109C275.127 63.0112 275.127 63.0116 275.128 63.012C275.333 63.4637 275.596 63.8819 275.905 64.2588C276.135 63.4329 276.64 62.7212 277.358 62.2281C278.186 61.6593 279.184 61.4566 280.171 61.6585L280.171 61.6586L290.672 63.8318C293.863 64.4846 297.243 66.9378 298.436 70.4679L302.046 72.552C302.678 72.917 302.895 73.7254 302.53 74.3577L296.67 84.5064C296.305 85.1386 295.497 85.3553 294.864 84.9902L290.805 82.6465C290.173 82.2815 289.956 81.473 290.321 80.8408L290.665 80.2451L281.84 77.5139C280.187 77.0051 278.588 76.3162 277.201 75.5153C277.138 75.4787 277.074 75.4419 277.012 75.4048C273.159 73.1198 270.127 69.7216 268.242 65.5788L268.241 65.5764L265.921 60.2344C265.92 60.234 265.92 60.2336 265.92 60.2332C265.051 58.3217 265.967 56.0665 267.923 55.3022C269.736 54.5939 271.788 55.4269 272.594 57.1986ZM279.233 66.2512L279.233 66.2512C279.233 66.2512 279.233 66.2511 279.232 66.2511L279.233 66.2512ZM293.272 81.0179L295.042 82.0397L299.579 74.1806L297.809 73.1587L293.272 81.0179Z" fill="white" stroke="white" stroke-width="0.3"/>
<path d="M281.078 47.6473L281.077 47.6473C279.988 47.6111 279.118 48.0904 278.577 49.0271C278.03 49.9742 278.13 51.1202 278.817 52.1605C278.817 52.1605 278.817 52.1605 278.817 52.1605L278.942 52.0779C279.098 52.3147 279.279 52.5343 279.477 52.7359L281.078 47.6473ZM281.078 47.6473C281.809 47.6718 282.52 47.9231 283.181 48.1574L283.193 48.1613C283.193 48.1613 283.193 48.1613 283.193 48.1613C283.444 48.2503 283.695 48.3391 283.926 48.4072C284.159 48.476 284.36 48.5201 284.514 48.5252L281.078 47.6473ZM282.965 54.217C282.503 54.2728 282.025 54.2332 281.56 54.1143L281.474 54.2632C281.109 54.8954 280.301 55.1121 279.669 54.747C279.036 54.382 278.82 53.5735 279.185 52.9413L279.29 52.7584L281.023 50.7039L280.898 50.7866L281.023 50.7039C281.204 50.9788 281.481 51.2191 281.783 51.3818C282.087 51.5456 282.399 51.6224 282.649 51.5923M282.965 54.217L282.947 54.0681L282.965 54.217C282.965 54.217 282.965 54.217 282.965 54.217ZM282.965 54.217C283.69 54.1297 284.207 53.4714 284.12 52.7465L284.12 52.7465C284.032 52.0218 283.374 51.5049 282.649 51.5923M282.649 51.5923C282.649 51.5923 282.649 51.5923 282.649 51.5923L282.667 51.7392L282.649 51.5923ZM284.43 51.0176L284.425 51.1675C285.515 51.2039 286.385 50.7244 286.926 49.7878C287.473 48.84 287.374 47.6941 286.688 46.655C286.688 46.655 286.688 46.655 286.688 46.6549L286.563 46.7376L284.43 51.0176ZM284.43 51.0176L284.425 51.1675C283.694 51.1431 282.983 50.8918 282.321 50.6575L282.31 50.6536C282.059 50.5646 281.808 50.4758 281.577 50.4077C281.344 50.3389 281.143 50.2948 280.989 50.2897L280.989 50.2897M284.43 51.0176L280.989 50.2897M280.989 50.2897C280.946 50.2882 280.921 50.2887 280.905 50.2903M280.989 50.2897L280.905 50.2903M280.905 50.2903C280.904 50.2905 280.903 50.2906 280.902 50.2907M280.905 50.2903L280.902 50.2907M280.902 50.2907C280.895 50.3003 280.887 50.314 280.873 50.3386L280.902 50.2907ZM282.854 47.2227L282.854 47.2227L284.598 48.5245C284.599 48.5244 284.6 48.5243 284.601 48.5242C284.608 48.5144 284.616 48.5003 284.631 48.4747C284.631 48.4728 284.631 48.4702 284.631 48.4668C284.631 48.4505 284.628 48.4246 284.618 48.389C284.598 48.318 284.555 48.2221 284.482 48.1116C284.3 47.8365 284.023 47.5961 283.721 47.4332C283.417 47.2694 283.105 47.1924 282.854 47.2227ZM286.318 45.8736L286.213 46.055L282.556 44.7468L282.538 44.5979C282.538 44.5979 282.538 44.5979 282.538 44.5979C283 44.5421 283.478 44.5816 283.943 44.7004L284.029 44.5517C284.394 43.9195 285.202 43.7029 285.834 44.0679C286.467 44.4329 286.683 45.2414 286.318 45.8736Z" fill="white" stroke="white" stroke-width="0.3"/>
<path d="M277.403 58.6711C272.295 55.7219 270.539 49.167 273.488 44.0589C276.437 38.9507 282.992 37.1943 288.1 40.1435C293.208 43.0927 294.965 49.6476 292.016 54.7557C289.066 59.8639 282.512 61.6202 277.403 58.6711ZM286.778 42.4331C282.933 40.2129 277.998 41.5353 275.778 45.3807C273.558 49.2262 274.88 54.1613 278.725 56.3815C282.571 58.6017 287.506 57.2793 289.726 53.4339C291.946 49.5884 290.624 44.6533 286.778 42.4331Z" fill="white" stroke="white" stroke-width="0.3"/>
<path d="M136.46 46.6023L136.46 46.6023L136.457 46.601C136.09 46.4704 135.683 46.4871 135.325 46.6546L127.024 50.5426C124.618 51.6696 123.578 54.541 124.705 56.9474L133.895 76.5687C135.022 78.9752 137.893 80.0148 140.3 78.8878L168.977 65.4567C171.383 64.3296 172.423 61.4583 171.296 59.0518L163.52 42.4492C162.393 40.0427 159.522 39.0031 157.115 40.1302L140.314 47.9989L136.46 46.6023ZM139.881 50.9984L139.881 50.9985L139.885 50.9997C140.252 51.1303 140.658 51.1136 141.016 50.9461L158.373 42.8168C159.296 42.3844 160.401 42.7844 160.833 43.7075L168.609 60.3101C169.042 61.2332 168.642 62.3378 167.719 62.7701L139.041 76.2011C138.118 76.6335 137.014 76.2336 136.581 75.3104L127.392 55.6892C126.959 54.7661 127.359 53.6615 128.282 53.2292L136.027 49.6018L139.881 50.9984Z" fill="white" stroke="white" stroke-width="1.3"/>
<defs>
<filter id="filter0_d" x="58" y="73" width="328" height="328" filterUnits="userSpaceOnUse" color-interpolation-filters="sRGB">
<feFlood flood-opacity="0" result="BackgroundImageFix"/>
<feColorMatrix in="SourceAlpha" type="matrix" values="0 0 0 0 0 0 0 0 0 0 0 0 0 0 0 0 0 0 127 0" result="hardAlpha"/>
<feOffset dx="4" dy="11"/>
<feGaussianBlur stdDeviation="9"/>
<feColorMatrix type="matrix" values="0 0 0 0 0.389722 0 0 0 0 0.698817 0 0 0 0 0.766667 0 0 0 0.3 0"/>
<feBlend mode="normal" in2="BackgroundImageFix" result="effect1_dropShadow"/>
<feBlend mode="normal" in="SourceGraphic" in2="effect1_dropShadow" result="shape"/>
</filter>
<linearGradient id="paint0_linear" x1="152.973" y1="295.107" x2="310.682" y2="177.88" gradientUnits="userSpaceOnUse">
<stop stop-color="#C4CDFF"/>
<stop offset="0.508333" stop-color="#7171FF"/>
<stop offset="1" stop-color="#1C1C9D"/>
</linearGradient>
</defs>
</svg>
