<svg width="124" height="124" viewBox="0 0 124 124" fill="none" xmlns="http://www.w3.org/2000/svg">
<g filter="url(#filter0_d)">
<circle cx="58" cy="58" r="50" fill="url(#paint0_linear)"/>
</g>
<path d="M75.1772 67.0938C76.2125 67.0938 77.0522 66.2544 77.0522 65.2188V46.1875C77.0522 42.0519 73.6875 38.6875 69.5522 38.6875H63.646V35.875C63.646 34.8394 62.8063 34 61.771 34H54.271C53.2354 34 52.396 34.8394 52.396 35.875V38.6875H46.5C42.3644 38.6875 39 42.0519 39 46.1875V74.5C39 78.6356 42.3644 82 46.5 82H69.5522C73.6875 82 77.0522 78.6356 77.0522 74.5C77.0522 73.4644 76.2125 72.625 75.1772 72.625C74.1416 72.625 73.3022 73.4644 73.3022 74.5C73.3022 76.5676 71.6199 78.25 69.5522 78.25H46.5C44.4324 78.25 42.75 76.5676 42.75 74.5V46.1875C42.75 44.1199 44.4324 42.4375 46.5 42.4375H52.396V43.375C52.396 46.4768 54.9192 49 58.021 49C61.1224 49 63.646 46.4768 63.646 43.375V42.4375H69.5522C71.6199 42.4375 73.3022 44.1199 73.3022 46.1875V65.2188C73.3022 66.2544 74.1416 67.0938 75.1772 67.0938ZM59.896 43.375C59.896 44.4088 59.0548 45.25 58.021 45.25C56.9868 45.25 56.146 44.4088 56.146 43.375V37.75H59.896V43.375ZM68.09 55.3398C68.9407 55.9302 69.1516 57.0988 68.5613 57.9495L60.219 69.9685C60.1941 70.0044 60.1677 70.0396 60.1403 70.074C59.298 71.1224 58.0452 71.775 56.7034 71.8644C56.5972 71.8713 56.4906 71.875 56.3848 71.875C55.1532 71.875 53.9557 71.4 53.0588 70.546C53.05 70.5376 53.0413 70.5295 53.0328 70.5211L48.0773 65.6198C47.3412 64.8914 47.3346 63.7041 48.0626 62.968C48.791 62.2316 49.9783 62.2253 50.7144 62.9534L55.6542 67.839C55.9479 68.1122 56.28 68.1342 56.4536 68.1224C56.6217 68.1115 56.9337 68.0492 57.1849 67.7632L65.4803 55.8112C66.071 54.9604 67.2393 54.7491 68.09 55.3398Z" fill="white"/>
<defs>
<filter id="filter0_d" x="0" y="0" width="124" height="124" filterUnits="userSpaceOnUse" color-interpolation-filters="sRGB">
<feFlood flood-opacity="0" result="BackgroundImageFix"/>
<feColorMatrix in="SourceAlpha" type="matrix" values="0 0 0 0 0 0 0 0 0 0 0 0 0 0 0 0 0 0 127 0" result="hardAlpha"/>
<feOffset dx="4" dy="4"/>
<feGaussianBlur stdDeviation="6"/>
<feColorMatrix type="matrix" values="0 0 0 0 0 0 0 0 0 0 0 0 0 0 0 0 0 0 0.2 0"/>
<feBlend mode="normal" in2="BackgroundImageFix" result="effect1_dropShadow"/>
<feBlend mode="normal" in="SourceGraphic" in2="effect1_dropShadow" result="shape"/>
</filter>
<linearGradient id="paint0_linear" x1="5.86616" y1="54.3428" x2="108.825" y2="73.8329" gradientUnits="userSpaceOnUse">
<stop stop-color="#C4CDFF"/>
<stop offset="0.544792" stop-color="#7171FF"/>
<stop offset="1" stop-color="#1C1C9D"/>
</linearGradient>
</defs>
</svg>
