<svg width="80" height="80" viewBox="0 0 80 80" fill="none" xmlns="http://www.w3.org/2000/svg">
<path d="M40 80C62.0914 80 80 62.0914 80 40C80 17.9086 62.0914 0 40 0C17.9086 0 0 17.9086 0 40C0 62.0914 17.9086 80 40 80Z" fill="black"/>
<path fill-rule="evenodd" clip-rule="evenodd" d="M66.7111 21.634C66.5689 21.15 66.2942 20.9424 65.7922 20.9424C61.1978 20.9424 56.6033 20.9426 52.0088 20.9427C42.8196 20.9431 33.6302 20.9435 24.44 20.9424C23.9135 20.9424 23.4704 21.1255 23.0993 21.4967C20.3998 24.1994 17.7003 26.9022 14.9976 29.6016C14.8471 29.7521 14.7638 29.9286 14.6967 30.12V30.3538C14.6998 30.3594 14.7033 30.365 14.7069 30.3706L14.7069 30.3706C14.7147 30.3831 14.7228 30.3958 14.7261 30.4094C14.8439 30.8541 15.1365 31.0765 15.6058 31.0765C20.1308 31.0765 24.6558 31.0769 29.1809 31.0773C33.7059 31.0777 38.2309 31.0781 42.7559 31.0781L45.6062 31.078H45.6088C49.406 31.0777 53.2033 31.0774 57.0005 31.0814C57.5303 31.0814 57.9668 30.8982 58.338 30.5254C61.0129 27.8472 63.6895 25.169 66.3694 22.4957C66.5362 22.3289 66.6621 22.1474 66.7324 21.9251V21.6651L66.7281 21.6601C66.721 21.6519 66.7138 21.6435 66.7111 21.634ZM66.2179 44.6124L65.4348 43.8298C63.0795 41.4762 60.7237 39.122 58.3745 36.7625C57.9658 36.3521 57.4965 36.1641 56.921 36.1641C47.7653 36.1673 38.609 36.1677 29.4528 36.1681C24.8754 36.1682 20.298 36.1684 15.7208 36.169C15.1191 36.169 14.8984 36.3259 14.7087 36.8917C14.7065 36.8972 14.7028 36.9012 14.6986 36.9058L14.6986 36.9058C14.6966 36.908 14.6945 36.9103 14.6924 36.9129V37.1206C14.7551 37.4151 14.9555 37.6121 15.1559 37.8089C15.1802 37.8329 15.2046 37.8568 15.2287 37.8809L15.2289 37.8811C17.8449 40.4955 20.4609 43.1098 23.072 45.7291C23.4579 46.1166 23.9059 46.3014 24.4553 46.3014C38.2079 46.2981 51.962 46.2998 65.7146 46.3014H65.729C65.7495 46.3014 65.7702 46.3017 65.791 46.3019C65.8747 46.303 65.9598 46.304 66.0397 46.2883C66.3814 46.218 66.594 46.0022 66.6937 45.6719C66.7006 45.6489 66.7091 45.6266 66.7176 45.6046C66.7211 45.5954 66.7246 45.5862 66.728 45.5771V45.3433C66.6671 45.0566 66.4726 44.8643 66.2769 44.6709C66.2572 44.6515 66.2375 44.632 66.2179 44.6124ZM52.8683 51.5946C57.191 51.5942 61.5137 51.5938 65.8359 51.5938C66.2921 51.5938 66.5881 51.8227 66.7041 52.2609C66.7075 52.2744 66.7155 52.2871 66.7234 52.2996C66.727 52.3052 66.7305 52.3108 66.7336 52.3164V52.5503C66.6649 52.789 66.5259 52.977 66.351 53.152C63.6875 55.8106 61.0256 58.4692 58.3686 61.1359C57.9664 61.5398 57.502 61.7278 56.938 61.7278C43.3065 61.7246 29.675 61.7246 16.0436 61.7246C15.9972 61.7246 15.9509 61.7244 15.9046 61.7242C15.8119 61.7238 15.7193 61.7235 15.6266 61.7246C15.0854 61.7278 14.778 61.3861 14.7257 61.0117C14.7236 60.9989 14.7159 60.9868 14.7081 60.9745C14.7039 60.9679 14.6997 60.9613 14.6963 60.9544V60.7991C14.7584 60.5489 14.8974 60.3527 15.0805 60.1696C17.7587 57.4963 20.4337 54.8181 23.107 52.1382C23.4684 51.7752 23.8951 51.5954 24.4102 51.5954C27.8525 51.5965 31.2948 51.5961 34.7372 51.5957C36.4583 51.5956 38.1795 51.5954 39.9007 51.5954C44.2229 51.5954 48.5456 51.595 52.8683 51.5946Z" fill="url(#paint0_linear)"/>
<defs>
<linearGradient id="paint0_linear" x1="60.0068" y1="20.9293" x2="20.1108" y2="61.8062" gradientUnits="userSpaceOnUse">
<stop stop-color="#0BF3A8"/>
<stop offset="1" stop-color="#D724FD"/>
</linearGradient>
</defs>
</svg>
