<svg width="80" height="80" viewBox="0 0 80 80" fill="none" xmlns="http://www.w3.org/2000/svg">
<circle cx="40" cy="40" r="39.85" fill="white" stroke="#8B8B8B" stroke-width="0.3"/>
<path d="M37.6732 64.4444C35.3387 59.8924 33.6113 55.5849 31.8534 51.2989C27.8908 41.6437 24.0083 31.9542 20.5294 22.1106C20.4416 21.8624 20.3894 21.5976 20.2736 21.3647C19.7236 20.2585 19.9782 19.8779 21.2613 20.0332C26.2423 20.6378 31.1787 21.5174 36.1177 22.3728C41.7339 23.3466 47.3309 24.4248 52.9433 25.4266C53.651 25.5526 54.2175 25.7805 54.7318 26.3113C57.1185 28.7808 59.5345 31.2222 61.9607 33.6535C62.4534 34.1474 62.778 34.4822 62.1784 35.2027C54.4352 44.4989 46.9783 54.0357 38.8418 63.0022C38.4854 63.393 38.1748 63.822 37.6732 64.4444ZM25.7879 27.4556C29.5163 36.7086 33.1989 45.8495 36.9133 55.068C37.495 54.5258 37.4046 53.9695 37.4785 53.4654C38.1799 48.7187 38.7349 43.9554 39.2237 39.1819C39.3229 38.2094 39.0938 37.6315 38.3441 37.0383C34.6678 34.1233 31.0336 31.1535 27.3816 28.208C26.9883 27.8884 26.6548 27.4493 25.7879 27.4556ZM40.769 55.8C46.0262 49.4137 51.1765 43.4322 56.2134 36.7353C51.6474 37.5118 47.5932 38.1992 43.5389 38.8929C42.8999 39.0024 42.5867 39.3435 42.4964 40.0475C42.1196 42.979 41.6422 45.8966 41.2616 48.8269C40.9803 50.9947 40.4877 53.1536 40.769 55.8ZM48.9361 27.8006C45.3286 27.1692 42.117 26.5964 38.9016 26.0491C35.6569 25.4979 32.4071 24.9734 29.1586 24.4363C32.5179 28.236 36.2488 31.4463 40.2 34.4071C40.5335 34.6566 40.8288 34.7343 41.1992 34.4822C43.9322 32.6174 46.4921 30.5565 48.9361 27.8006ZM57.1618 33.2946C55.9436 32.1426 55.0016 31.2388 54.0444 30.3528C53.5836 29.9264 52.9764 29.7202 52.4316 30.0066C50.0614 31.2528 48.2093 33.1113 46.5468 35.2345C49.957 34.6095 53.3685 33.9871 57.1618 33.2946Z" fill="#D51C1E"/>
</svg>
