<svg width="124" height="124" viewBox="0 0 124 124" fill="none" xmlns="http://www.w3.org/2000/svg">
<g filter="url(#filter0_d)">
<circle cx="58" cy="58" r="50" fill="url(#paint0_linear)"/>
</g>
<path d="M77.5721 57.2263H75.8513C75.4511 56.3295 74.9507 55.4745 74.3641 54.6842L77.6397 53.2382C78.1493 53.0133 78.478 52.5087 78.478 51.9517C78.478 48.7858 75.9116 46.2104 72.757 46.2104H69.3597C67.2144 46.2104 65.2565 47.4407 64.2845 49.3045H61.8582C62.0627 48.4078 62.1711 47.4749 62.1711 46.5172C62.1711 39.6152 56.5613 34 49.6659 34C42.7704 34 37.1606 39.6152 37.1606 46.5172C37.1606 49.8817 38.494 52.94 40.6592 55.1915C40.0324 56.12 39.5195 57.1319 39.139 58.2061C37.9891 57.9555 37.0433 57.0466 36.779 55.8624C36.6098 55.1043 35.8577 54.6265 35.1002 54.7963C34.3422 54.9655 33.8649 55.7171 34.0341 56.475C34.3217 57.7638 35.0455 58.934 36.0722 59.7698C36.7771 60.3436 37.6063 60.7426 38.4849 60.9418C38.4114 61.5093 38.3732 62.0878 38.3732 62.6751V63.9506C38.3732 68.8605 41.0777 73.378 45.3355 75.7034V80.593C45.3355 81.3697 45.9651 81.9993 46.7417 81.9993H52.456C53.2326 81.9993 53.8622 81.3697 53.8622 80.593V77.3212H61.7527V80.593C61.7527 81.3697 62.3823 81.9993 63.1589 81.9993H68.8732C69.6499 81.9993 70.2795 81.3697 70.2795 80.593V75.5715C72.9647 74.0336 75.0398 71.6005 76.1368 68.7089H77.5724C80.0137 68.7089 82 66.7164 82 64.2672V61.6677C81.9996 59.2187 80.0135 57.2263 77.5721 57.2263ZM39.973 46.5171C39.973 41.1658 44.3213 36.8125 49.6659 36.8125C55.0105 36.8125 59.3585 41.166 59.3585 46.5171C59.3585 51.8682 55.0104 56.2218 49.6658 56.2218C44.3212 56.2219 39.973 51.8684 39.973 46.5171ZM79.1872 64.2672C79.1871 65.1656 78.4626 65.8965 77.572 65.8965H75.1248C74.4989 65.8965 73.9484 66.31 73.7743 66.9111C72.9448 69.7716 70.9341 72.1588 68.2578 73.4607C67.7738 73.6961 67.4667 74.1871 67.4667 74.7252V79.1868H64.5649V75.915C64.5649 75.1383 63.9353 74.5087 63.1587 74.5087H52.4558C51.6792 74.5087 51.0496 75.1383 51.0496 75.915V79.1868H48.1477V74.8368C48.1477 74.2874 47.8278 73.7882 47.3286 73.5589C43.5968 71.8446 41.1856 68.073 41.1856 63.9506V62.6751C41.1856 60.5868 41.7918 58.6382 42.8366 56.9977C44.8013 58.2848 47.1476 59.0344 49.6659 59.0344C54.5515 59.0344 58.7908 56.2151 60.8476 52.1169H65.2251C65.8476 52.1169 66.3959 51.7077 66.5731 51.1111C66.9384 49.8816 68.0841 49.0229 69.3596 49.0229H72.7569C74.0636 49.0229 75.1719 49.8953 75.5376 51.0919L71.4918 52.8778C71.0666 53.0656 70.7616 53.4513 70.6771 53.9084C70.5924 54.3654 70.7391 54.8348 71.0691 55.1623C72.1831 56.268 73.0503 57.6317 73.5772 59.1058C73.7773 59.6653 74.3072 60.0387 74.9014 60.0387H77.5721C78.4627 60.0387 79.1872 60.7696 79.1872 61.668V64.2672Z" fill="white"/>
<path d="M50.5072 45.2013H48.5838C47.9273 45.2013 47.3933 44.6579 47.3933 43.9901C47.3933 43.3223 47.9273 42.7789 48.5838 42.7789H51.4316C51.5783 42.7789 51.6978 42.9009 51.6978 43.0508C51.6978 43.7472 52.2539 44.3118 52.9398 44.3118C53.6258 44.3118 54.1819 43.7472 54.1819 43.0508C54.1819 41.5103 52.9481 40.257 51.4316 40.257H50.7877V39.6245C50.7877 38.9281 50.2316 38.3635 49.5456 38.3635C48.8597 38.3635 48.3036 38.9281 48.3036 39.6245V40.269C46.4079 40.4151 44.9093 42.0276 44.9093 43.9902C44.9093 46.0486 46.5576 47.7233 48.5839 47.7233H50.5073C51.1638 47.7233 51.6978 48.2666 51.6978 48.9344C51.6978 49.6022 51.1638 50.1456 50.5073 50.1456H47.6596C47.5128 50.1456 47.3933 50.0236 47.3933 49.8737C47.3933 49.1772 46.8373 48.6126 46.1512 48.6126C45.4653 48.6126 44.9092 49.1772 44.9092 49.8736C44.9092 51.4141 46.143 52.6674 47.6596 52.6674H48.3035V53.4662C48.3035 54.1626 48.8596 54.7272 49.5455 54.7272C50.2315 54.7272 50.7876 54.1626 50.7876 53.4662V52.6554C52.6832 52.5093 54.1818 50.8968 54.1818 48.9344C54.1817 46.8759 52.5334 45.2013 50.5072 45.2013Z" fill="white"/>
<path d="M68.3934 59.0672C69.1672 59.0672 69.7945 58.4399 69.7945 57.6661C69.7945 56.8922 69.1672 56.2649 68.3934 56.2649C67.6195 56.2649 66.9922 56.8922 66.9922 57.6661C66.9922 58.4399 67.6195 59.0672 68.3934 59.0672Z" fill="white"/>
<defs>
<filter id="filter0_d" x="0" y="0" width="124" height="124" filterUnits="userSpaceOnUse" color-interpolation-filters="sRGB">
<feFlood flood-opacity="0" result="BackgroundImageFix"/>
<feColorMatrix in="SourceAlpha" type="matrix" values="0 0 0 0 0 0 0 0 0 0 0 0 0 0 0 0 0 0 127 0" result="hardAlpha"/>
<feOffset dx="4" dy="4"/>
<feGaussianBlur stdDeviation="6"/>
<feColorMatrix type="matrix" values="0 0 0 0 0 0 0 0 0 0 0 0 0 0 0 0 0 0 0.2 0"/>
<feBlend mode="normal" in2="BackgroundImageFix" result="effect1_dropShadow"/>
<feBlend mode="normal" in="SourceGraphic" in2="effect1_dropShadow" result="shape"/>
</filter>
<linearGradient id="paint0_linear" x1="5.86616" y1="54.3428" x2="108.825" y2="73.8329" gradientUnits="userSpaceOnUse">
<stop stop-color="#C4CDFF"/>
<stop offset="0.544792" stop-color="#7171FF"/>
<stop offset="1" stop-color="#1C1C9D"/>
</linearGradient>
</defs>
</svg>
