<svg width="124" height="124" viewBox="0 0 124 124" fill="none" xmlns="http://www.w3.org/2000/svg">
<g filter="url(#filter0_d)">
<circle cx="58" cy="58" r="50" fill="url(#paint0_linear)"/>
</g>
<path d="M81.4981 51.5021L69.4979 39.5019C68.8283 38.8325 67.7429 38.8327 67.0735 39.5023C66.7522 39.8237 66.5717 40.2595 66.5716 40.714V45.8569H54.5713C53.6245 45.8569 52.857 46.6245 52.857 47.5713C52.857 48.5181 53.6245 49.2856 54.5713 49.2856H68.2859C69.2327 49.2856 70.0002 48.5181 70.0002 47.5713V44.8523L77.8621 52.7141L70.0002 60.576V57.8571C70.0002 56.9102 69.2327 56.1427 68.2859 56.1427H49.4284V50.9998C49.4282 50.053 48.6605 49.2856 47.7138 49.2858C47.2593 49.2859 46.8235 49.4664 46.5021 49.7878L34.502 61.788C33.8327 62.4575 33.8327 63.5426 34.502 64.212L46.5022 76.2122C46.8236 76.5337 47.2595 76.7144 47.7142 76.7145C47.9395 76.7152 48.1628 76.6709 48.3707 76.5843C49.0112 76.3187 49.4286 75.6936 49.4284 75.0002V69.8573H61.4286C62.3754 69.8573 63.143 69.0897 63.143 68.1429C63.143 67.1961 62.3754 66.4286 61.4286 66.4286H47.7142C46.7674 66.4286 45.9998 67.1961 45.9998 68.1429V70.8618L38.138 63L45.9998 55.1381V57.8571C45.9998 58.8039 46.7674 59.5714 47.7142 59.5714H66.5716V64.7143C66.5718 65.6612 67.3395 66.4285 68.2862 66.4283C68.7406 66.4282 69.1765 66.2477 69.4979 65.9263L81.4981 53.9261C82.1673 53.2566 82.1673 52.1715 81.4981 51.5021Z" fill="white"/>
<defs>
<filter id="filter0_d" x="0" y="0" width="124" height="124" filterUnits="userSpaceOnUse" color-interpolation-filters="sRGB">
<feFlood flood-opacity="0" result="BackgroundImageFix"/>
<feColorMatrix in="SourceAlpha" type="matrix" values="0 0 0 0 0 0 0 0 0 0 0 0 0 0 0 0 0 0 127 0" result="hardAlpha"/>
<feOffset dx="4" dy="4"/>
<feGaussianBlur stdDeviation="6"/>
<feColorMatrix type="matrix" values="0 0 0 0 0 0 0 0 0 0 0 0 0 0 0 0 0 0 0.2 0"/>
<feBlend mode="normal" in2="BackgroundImageFix" result="effect1_dropShadow"/>
<feBlend mode="normal" in="SourceGraphic" in2="effect1_dropShadow" result="shape"/>
</filter>
<linearGradient id="paint0_linear" x1="5.86616" y1="54.3428" x2="108.825" y2="73.8329" gradientUnits="userSpaceOnUse">
<stop stop-color="#C4CDFF"/>
<stop offset="0.544792" stop-color="#7171FF"/>
<stop offset="1" stop-color="#1C1C9D"/>
</linearGradient>
</defs>
</svg>
