<svg width="80" height="80" viewBox="0 0 80 80" fill="none" xmlns="http://www.w3.org/2000/svg">
<circle cx="40" cy="40" r="39.85" fill="white" stroke="#8B8B8B" stroke-width="0.3"/>
<path d="M40.0112 17.7773C52.2951 17.7802 62.2407 27.7418 62.2349 40.0098C62.2291 52.3559 52.1459 62.3552 39.7635 62.2204C27.523 62.0886 17.7658 52.0908 17.7774 39.9764C17.7889 27.8142 27.6592 17.7773 40.0112 17.7773ZM40.0185 56.2878C49.2006 56.2676 56.4907 48.6906 56.2951 39.6418C56.1068 30.9334 48.9659 23.7186 40.0069 23.7143C31.0015 23.7099 23.5564 31.0913 23.7201 40.301C23.8766 49.1644 31.1261 56.282 40.0185 56.2878Z" fill="#18347E"/>
<path d="M27.1024 19.661C27.0503 19.7494 26.9764 19.7755 26.9141 19.816C24.0557 21.6864 21.6899 24.0507 19.8182 26.9091C19.7761 26.9743 19.7472 27.1018 19.6631 27.0771C19.5806 27.0525 19.6255 26.9294 19.6255 26.8511C19.6226 24.5505 19.624 22.2499 19.624 19.9479C19.624 19.6349 19.6255 19.632 19.9355 19.632C22.2448 19.632 24.5541 19.632 26.8634 19.632C26.9358 19.632 27.0126 19.6219 27.1024 19.661Z" fill="#18347E"/>
<path d="M60.3413 27.1357C59.3619 25.6116 58.2638 24.2396 57.0121 22.9894C55.7661 21.7449 54.4 20.6497 52.9121 19.6964C52.9918 19.6095 53.0729 19.6341 53.1439 19.6341C55.4604 19.6326 57.7784 19.6326 60.095 19.6326C60.1326 19.6326 60.1703 19.6312 60.208 19.6355C60.3601 19.65 60.3717 19.6616 60.3789 19.8137C60.3818 19.8746 60.3804 19.9354 60.3804 19.9948C60.3804 22.2664 60.3804 24.5366 60.3804 26.8083C60.3804 26.8981 60.3963 26.9894 60.3413 27.1357Z" fill="#18347E"/>
<path d="M19.6645 52.8516C20.6381 54.3727 21.7362 55.7461 22.9865 56.9964C24.2367 58.2481 25.6101 59.3492 27.111 60.3111C27.0429 60.3894 26.972 60.3691 26.9097 60.3691C26.5011 60.372 26.0911 60.3705 25.6826 60.3705C23.7746 60.3705 21.8651 60.3705 19.9571 60.3705C19.6239 60.3705 19.6225 60.3691 19.6225 60.033C19.6225 57.7309 19.6225 55.4303 19.6225 53.1283C19.6239 53.0544 19.6109 52.9776 19.6645 52.8516Z" fill="#18347E"/>
<path d="M60.33 52.8926C60.4025 52.9925 60.3822 53.0693 60.3822 53.1418C60.3836 55.4496 60.3836 57.7589 60.3836 60.0668C60.3836 60.3666 60.3822 60.3681 60.0823 60.3681C57.773 60.3681 55.4637 60.3681 53.1544 60.3681C53.082 60.3681 53.0052 60.3797 52.8994 60.3217C53.1616 60.1435 53.4021 59.9827 53.6397 59.8176C53.8817 59.6481 54.1222 59.4771 54.3597 59.3018C54.5901 59.1309 54.8176 58.9541 55.0421 58.7745C55.2725 58.589 55.4999 58.4007 55.723 58.208C55.9461 58.0153 56.1663 57.8183 56.3822 57.6169C56.5981 57.4156 56.811 57.2113 57.0196 57.0027C57.2225 56.7998 57.4224 56.5927 57.618 56.3812C57.8193 56.1653 58.0164 55.9451 58.2091 55.722C58.4017 55.4989 58.5915 55.2714 58.7755 55.0425C58.961 54.8122 59.1406 54.5789 59.3173 54.3428C59.4897 54.1124 59.6564 53.8777 59.8215 53.6416C59.9896 53.4011 60.1518 53.1562 60.33 52.8926Z" fill="#18347E"/>
</svg>
