<svg width="80" height="80" viewBox="0 0 80 80" fill="none" xmlns="http://www.w3.org/2000/svg">
<path d="M40 80C62.0914 80 80 62.0914 80 40C80 17.9086 62.0914 0 40 0C17.9086 0 0 17.9086 0 40C0 62.0914 17.9086 80 40 80Z" fill="#3258D8"/>
<path d="M65.2964 40.2422C65.2964 44.8275 65.2816 49.4129 65.3127 53.9966C65.3176 54.6447 65.1245 55.0063 64.56 55.332C56.5806 59.9533 48.6127 64.5943 40.6496 69.2452C40.2029 69.507 39.8805 69.5119 39.4256 69.2484C31.4233 64.6107 23.4112 59.9893 15.3892 55.3827C14.8868 55.0947 14.6856 54.787 14.6856 54.193C14.7052 44.9388 14.7068 35.683 14.6856 26.4288C14.6839 25.807 14.8885 25.4797 15.4203 25.172C23.349 20.5768 31.2694 15.9669 39.1768 11.3357C39.7938 10.9741 40.2389 10.9872 40.8575 11.3456C48.7583 15.9325 56.6739 20.495 64.5976 25.0427C65.1393 25.3537 65.3111 25.7071 65.3078 26.3192C65.2849 30.9585 65.2964 35.5995 65.2964 40.2422ZM25.5124 40.3027C25.5124 42.8491 25.5287 45.3954 25.4993 47.9417C25.4927 48.4899 25.6498 48.7976 26.1408 49.0758C30.5641 51.5943 34.976 54.1341 39.3748 56.6951C39.8756 56.9864 40.234 56.9979 40.7413 56.7001C45.1041 54.1324 49.4783 51.5861 53.8673 49.0643C54.4057 48.755 54.6005 48.4147 54.5972 47.7977C54.5726 42.7329 54.5726 37.668 54.5988 32.6032C54.6021 31.983 54.4041 31.6458 53.869 31.3398C49.4472 28.8197 45.037 26.2766 40.6382 23.7156C40.1849 23.4504 39.869 23.4488 39.4207 23.7123C35.0071 26.3061 30.5838 28.8819 26.1522 31.4413C25.6793 31.7146 25.4911 32.0173 25.4976 32.5786C25.532 35.1511 25.5124 37.7269 25.5124 40.3027Z" fill="#FDFDFE"/>
</svg>
