<svg width="90" height="32" viewBox="0 0 90 32" fill="none" xmlns="http://www.w3.org/2000/svg">
<path d="M4.52434 31.995V13.559H0L1.49457 8.23096H9.85241V31.995H4.52434Z" fill="#7171FF"/>
<path d="M20.5087 16.2729V31.9952H15.1807V8.22656H20.5087V10.9538C21.5518 10.1411 22.6038 9.75274 24.0533 9.18381C25.5027 8.61488 27.1101 8.3259 28.8711 8.3259C31.8693 8.3259 34.0547 9.02578 35.4228 10.43C36.791 11.8298 37.4773 14.0152 37.4773 16.9817V31.9907H32.1944V17.2256C32.1944 15.433 32.1266 14.6428 31.2868 13.6946C30.1805 12.4529 23.6062 12.2994 20.5087 16.2729Z" fill="#7171FF"/>
<path d="M37.5947 15.0314V32H32.2666V8.82288H37.5856L37.5947 11.2656V15.0314Z" fill="#7171FF"/>
<path d="M37.5858 8.82312C35.1746 8.33547 30.0859 7.97424 27.2412 8.47544C28.5507 10.7692 37.5858 8.82312 37.5858 8.82312Z" fill="#7171FF"/>
<path d="M42.918 32V0H49.3252V17.6142L58.988 8.23593H66.2983L55.9717 18.7069L66.2938 32H59.5027L51.935 22.0799L49.3252 24.5949V32H42.918Z" fill="#3A3A3A"/>
<path d="M75.6498 31.9953C74.1823 31.9953 72.7916 31.7921 71.5679 31.1871C70.57 30.6994 69.9063 30.2614 69.247 29.5796C68.9897 29.3177 68.7594 29.0242 68.5562 28.7172C67.9105 27.7464 67.3867 26.5634 67.3867 25.1907C67.3867 22.9105 68.195 21.0818 69.8069 19.7136C71.4189 18.3455 73.8075 17.6592 76.9682 17.6592H83.8134V17.0225C83.8134 15.5866 83.4161 14.5797 82.6169 13.9927C81.8177 13.4057 80.2147 13.1123 77.799 13.1123C75.1576 13.1123 72.6155 13.5186 70.1727 14.3359V9.68965C71.2473 9.26521 72.5613 8.91753 74.11 8.63758C75.6588 8.36215 77.343 8.22217 79.1717 8.22217C82.6575 8.22217 84.6759 8.93107 86.5813 10.3489C88.4868 11.7667 89.444 14.0424 89.444 17.1715V31.9908H84.0663V29.7873C83.1497 30.4104 82.0299 30.8484 80.6933 31.3045C79.3523 31.7695 77.6726 31.9953 75.6498 31.9953ZM77.4694 27.8909C78.9369 27.8909 80.1967 27.4484 81.2758 26.9562C82.3505 26.4685 83.1994 25.85 83.818 25.0959V21.7681H77.1172C74.5435 21.7681 73.2521 22.8292 73.2521 24.9469C73.2566 27.0059 74.6654 27.8909 77.4694 27.8909Z" fill="#3A3A3A"/>
<path d="M83.8176 21.7721C83.6098 27.7368 77.5684 27.8903 77.5684 27.8903L84.7838 28.5044L83.8176 21.7721Z" fill="#3A3A3A"/>
<path d="M9.85737 0H4.5293V5.32806H9.85737V0Z" fill="#7171FF"/>
</svg>
