<svg width="80" height="80" viewBox="0 0 80 80" fill="none" xmlns="http://www.w3.org/2000/svg">
<path d="M50.456 78.606C29.2495 84.319 7.34668 71.9764 1.46451 50.654C-4.44866 29.2191 8.08379 7.33576 29.3409 1.46779C50.8376 -4.46542 72.6867 8.13816 78.5427 29.3692C84.4543 50.7975 71.8419 72.769 50.456 78.606ZM21.8997 36.2222C20.9408 36.4701 19.9868 36.7311 19.0654 37.0964C18.0347 37.5057 17.0074 37.9298 16.2344 38.768C15.587 39.471 15.5984 40.2244 16.249 40.9241C16.6437 41.3481 17.1231 41.6629 17.6368 41.9222C19.7503 42.9921 22.0334 43.5091 24.3377 43.9396C27.7052 44.5691 31.1102 44.8937 34.53 45.047C34.9703 45.0666 35.0453 45.215 35.0453 45.6162C35.0469 51.6016 35.0665 57.5853 35.0714 63.5707C35.0714 63.9312 35.1496 64.0518 35.5394 64.0486C38.4943 64.0225 41.4493 64.0176 44.4043 64.0257C44.781 64.0274 44.8755 63.923 44.8739 63.5479C44.8462 57.5331 44.838 51.5184 44.8119 45.5037C44.8103 45.1628 44.8853 45.0388 45.2506 45.0209C48.385 44.8692 51.503 44.5659 54.5965 44.0261C56.8177 43.6379 59.0159 43.1584 61.1131 42.3022C61.9839 41.9467 62.8287 41.5373 63.4989 40.854C64.1969 40.1429 64.2099 39.3747 63.5446 38.6392C63.1092 38.1581 62.5628 37.827 61.9872 37.5465C59.753 36.4603 57.3509 35.9433 54.9276 35.516C51.7346 34.9534 48.5122 34.637 45.2734 34.513C44.8918 34.4984 44.7728 34.394 44.7793 33.9944C44.8005 32.3537 44.7826 30.713 44.7777 29.074C44.7761 28.5619 44.7761 28.5635 45.2669 28.5619C49.4694 28.5505 53.6719 28.5342 57.876 28.5391C58.2511 28.5391 58.3196 28.4216 58.318 28.0759C58.2968 25.3702 58.2919 22.6646 58.2968 19.9589C58.2968 19.6197 58.2364 19.4908 57.8548 19.4925C45.8507 19.5349 33.8467 19.5659 21.8426 19.5887C21.5246 19.5887 21.4284 19.6637 21.4316 19.9948C21.4528 22.7249 21.4577 25.455 21.4496 28.1868C21.4479 28.5374 21.536 28.6353 21.8964 28.6336C26.125 28.6092 30.3536 28.6076 34.5821 28.5847C34.8985 28.5831 35.0029 28.6516 35.0012 28.9827C34.9898 30.7 34.9964 32.4173 35.0127 34.1347C35.0159 34.4168 34.9393 34.5147 34.6474 34.5277C33.1275 34.5929 31.6092 34.7136 30.0959 34.8702C27.335 35.1523 24.5937 35.5454 21.8997 36.2222Z" fill="#26A07B"/>
<path d="M21.9004 36.223C24.5944 35.5462 27.3357 35.1531 30.0933 34.8677C31.6083 34.7112 33.1249 34.5905 34.6448 34.5252C34.9367 34.5122 35.0134 34.4143 35.0101 34.1322C34.9938 32.4149 34.9873 30.6975 34.9987 28.9802C35.0003 28.6475 34.8976 28.5806 34.5796 28.5823C30.351 28.6051 26.1224 28.6067 21.8938 28.6312C21.5351 28.6328 21.447 28.535 21.447 28.1843C21.4552 25.4542 21.4486 22.7241 21.4291 19.9923C21.4258 19.6596 21.522 19.5862 21.84 19.5862C33.8441 19.5634 45.8482 19.5324 57.8523 19.49C58.2339 19.4884 58.2942 19.6172 58.2942 19.9564C58.2877 22.6621 58.2942 25.3678 58.3154 28.0734C58.3187 28.4192 58.2502 28.5366 57.8735 28.5366C53.671 28.5333 49.4685 28.5496 45.2644 28.5594C44.7735 28.5611 44.7735 28.5594 44.7752 29.0715C44.7784 30.7122 44.798 32.3529 44.7768 33.9919C44.7719 34.3899 44.8893 34.4959 45.2709 34.5106C48.5096 34.6361 51.732 34.9509 54.925 35.5136C57.3467 35.9409 59.7505 36.4579 61.9846 37.544C62.5603 37.8229 63.1066 38.1556 63.542 38.6367C64.2074 39.3723 64.1943 40.1404 63.4964 40.8515C62.8261 41.5348 61.9798 41.9442 61.1106 42.2997C59.0134 43.156 56.8151 43.6371 54.594 44.0236C51.5021 44.5634 48.3824 44.8668 45.2481 45.0184C44.8828 45.0364 44.8078 45.1587 44.8094 45.5012C44.8339 51.5159 44.8436 57.5307 44.8714 63.5454C44.873 63.9205 44.7784 64.0233 44.4017 64.0233C41.4468 64.0151 38.4918 64.0217 35.5368 64.0461C35.1471 64.0494 35.0688 63.9287 35.0688 63.5683C35.0656 57.5829 35.0444 51.5991 35.0427 45.6137C35.0427 45.2125 34.9693 45.0641 34.5274 45.0445C31.1077 44.8912 27.7043 44.5667 24.3351 43.9372C22.0308 43.5066 19.7478 42.988 17.6343 41.9197C17.1206 41.6604 16.6411 41.3457 16.2465 40.9216C15.5975 40.222 15.5844 39.4685 16.2318 38.7656C17.0048 37.9273 18.0322 37.5016 19.0628 37.0939C19.9875 36.7319 20.9431 36.4709 21.9004 36.223ZM23.0468 36.6536C22.0439 36.9178 21.1584 37.1379 20.312 37.4821C19.6597 37.7479 19.0155 38.03 18.4937 38.5226C17.9131 39.0706 17.9082 39.6544 18.4823 40.2122C18.8035 40.5237 19.1884 40.7439 19.5896 40.9347C21.0589 41.6343 22.6277 42.0029 24.2112 42.3112C28.1022 43.0695 32.0421 43.3843 35.9984 43.5017C41.481 43.6664 46.9522 43.5148 52.3941 42.7727C54.6511 42.4645 56.895 42.0698 59.0542 41.3098C59.9021 41.0113 60.7436 40.6819 61.3878 40.0148C61.8362 39.55 61.8395 39.0363 61.4237 38.5487C61.1741 38.2567 60.8594 38.0496 60.5251 37.8702C59.0509 37.0809 57.4413 36.7009 55.822 36.3714C52.2946 35.6538 48.72 35.3537 45.1323 35.1678C44.8388 35.1531 44.7882 35.2608 44.7898 35.5201C44.8029 37.4592 44.7931 39.4 44.8176 41.3391C44.8224 41.7012 44.7099 41.7893 44.3675 41.8072C41.3766 41.9654 38.3858 41.9621 35.3933 41.817C35.1145 41.8039 35.0166 41.7322 35.0183 41.4337C35.028 39.6642 35.0166 37.8947 35.0069 36.1252C35.0052 35.8283 35.1308 35.4418 34.9514 35.2592C34.7492 35.052 34.3611 35.2216 34.0577 35.238C30.3119 35.4516 26.5888 35.8365 23.0468 36.6536Z" fill="#FCFDFD"/>
<path d="M23.0459 36.6537C26.5863 35.8367 30.311 35.4518 34.0552 35.2415C34.3586 35.2252 34.7467 35.0556 34.9489 35.2627C35.1283 35.4453 35.0027 35.8334 35.0043 36.1286C35.0125 37.898 35.0239 39.6674 35.0158 41.4368C35.0141 41.7352 35.1136 41.8053 35.3908 41.82C38.3833 41.9651 41.3725 41.97 44.3649 41.8102C44.7074 41.7923 44.8199 41.7042 44.815 41.3422C44.7906 39.4032 44.8004 37.4626 44.7873 35.5236C44.7857 35.2643 44.8362 35.1567 45.1298 35.1713C48.7175 35.3573 52.2937 35.6573 55.8195 36.3749C57.4388 36.7043 59.0484 37.0842 60.5226 37.8735C60.8569 38.0529 61.1716 38.26 61.4211 38.5519C61.837 39.0395 61.8337 39.5532 61.3853 40.018C60.7411 40.685 59.8996 41.0144 59.0516 41.3128C56.8925 42.0711 54.6502 42.4674 52.3916 42.7756C46.9497 43.5176 41.4785 43.6676 35.9958 43.5046C32.0396 43.3855 28.1013 43.0724 24.2087 42.3141C22.6252 42.0059 21.0548 41.6357 19.5871 40.9377C19.1859 40.7469 18.801 40.5268 18.4798 40.2153C17.9074 39.6576 17.9123 39.0738 18.4912 38.5258C19.013 38.0333 19.6572 37.7496 20.3095 37.4854C21.1591 37.1381 22.043 36.9179 23.0459 36.6537Z" fill="#26A07B"/>
</svg>
